<?xml version="1.0" standalone="no"?>
<!DOCTYPE svg PUBLIC "-//W3C//DTD SVG 20010904//EN"
 "http://www.w3.org/TR/2001/REC-SVG-20010904/DTD/svg10.dtd">
<svg version="1.0" xmlns="http://www.w3.org/2000/svg"
 width="800.000000pt" height="800.000000pt" viewBox="0 0 800.000000 800.000000"
 preserveAspectRatio="xMidYMid meet">
<metadata>
Created by potrace 1.16, written by Peter Selinger 2001-2019
</metadata>
<g transform="translate(0.000000,800.000000) scale(0.100000,-0.100000)"
fill="#000000" stroke="none">
<path d="M3413 7987 c-13 -5 -23 -13 -23 -17 0 -9 46 -30 65 -30 27 0 15 -16
-22 -29 -62 -23 -18 -30 189 -32 212 -2 239 3 267 53 26 46 8 53 -152 55 -78
0 -178 3 -222 6 -46 3 -90 0 -102 -6z"/>
<path d="M4277 7986 c-3 -8 -1 -18 4 -23 23 -23 -66 -51 -170 -54 -44 -1 -44
-2 19 -12 61 -9 188 -13 306 -9 33 2 56 8 65 18 7 9 23 20 36 25 23 8 30 33
15 55 -11 17 -269 17 -275 0z"/>
<path d="M5196 7985 c3 -8 14 -17 24 -20 9 -3 25 -14 34 -24 17 -18 16 -20 -4
-26 -12 -4 -52 -4 -90 0 -41 4 -70 3 -74 -3 -8 -13 141 -25 273 -21 58 1 127
-1 154 -5 54 -9 86 6 66 30 -9 11 -6 14 17 14 36 0 94 34 94 55 0 13 -33 15
-250 15 -215 0 -249 -2 -244 -15z"/>
<path d="M6080 7991 c0 -29 137 -78 235 -85 105 -8 164 -14 186 -21 10 -3 37
-1 59 5 33 9 39 14 31 24 -16 19 10 38 45 34 35 -4 42 -23 12 -32 -22 -7 -22
-7 -3 -16 24 -10 67 -12 89 -4 23 9 20 27 -9 54 -14 13 -25 29 -25 37 0 10
-59 13 -310 13 -171 0 -310 -4 -310 -9z"/>
<path d="M4454 7369 c-3 -5 6 -9 20 -9 14 0 26 -5 26 -10 0 -7 -30 -8 -89 -4
-75 6 -96 4 -128 -11 -41 -20 -37 -24 32 -41 l30 -7 -30 -13 c-17 -7 -69 -14
-120 -14 -122 -2 -151 -15 -55 -24 41 -5 98 -7 125 -7 28 1 67 -5 87 -14 53
-22 110 -20 131 5 19 23 47 26 65 8 12 -12 64 -14 215 -8 40 2 47 5 47 22 0
17 -4 19 -27 13 -15 -3 -70 -3 -122 1 l-95 7 58 17 c31 10 85 20 119 23 34 3
63 6 65 6 1 1 2 7 2 15 0 25 -20 29 -67 11 -51 -20 -89 -16 -154 13 -51 22
-126 34 -135 21z"/>
<path d="M6309 7376 c-3 -4 -46 -11 -95 -16 -122 -13 -154 -19 -154 -30 0 -5
9 -12 20 -15 33 -10 23 -32 -17 -39 -49 -8 -311 -8 -341 0 -14 4 -22 13 -20
23 3 12 21 18 83 23 44 4 95 5 114 2 25 -4 32 -2 29 8 -6 17 -159 22 -483 16
-194 -4 -251 -24 -167 -61 24 -10 14 -12 -73 -18 -59 -3 -117 -2 -142 4 -30 8
-49 8 -67 -1 -57 -26 -10 -59 62 -44 39 9 284 17 462 16 41 -1 1002 -14 1025
-14 70 -2 227 15 236 26 16 19 -6 26 -86 28 -69 1 -95 19 -35 24 52 4 91 22
88 41 -3 13 -23 16 -133 16 -72 0 -168 4 -215 9 -47 4 -88 5 -91 2z"/>
<path d="M3462 7337 c-26 -12 -28 -25 -7 -33 8 -4 15 -12 15 -18 0 -20 -47
-36 -107 -36 -31 0 -53 -3 -49 -7 7 -8 86 -14 166 -13 398 1 508 3 519 10 9 5
-5 12 -44 20 -53 11 -57 14 -52 36 3 16 -1 28 -12 33 -24 13 -403 19 -429 8z"/>
<path d="M7148 7334 c-21 -9 -38 -21 -38 -28 0 -6 -3 -22 -7 -35 -6 -23 -5
-24 33 -16 21 4 50 9 64 10 14 1 35 7 47 13 12 7 45 12 73 12 58 0 124 24 118
42 -7 21 -242 22 -290 2z"/>
<path d="M4789 6884 c-12 -14 -10 -19 11 -36 l24 -19 -30 -24 c-27 -22 -27
-24 -10 -31 10 -4 32 -2 48 4 22 8 37 7 68 -5 61 -24 52 -43 -19 -43 -33 0
-63 -4 -66 -10 -11 -17 -58 -11 -81 11 -15 14 -29 19 -43 14 -31 -9 -26 -32 9
-38 19 -4 30 -13 30 -23 0 -12 -5 -15 -22 -9 -38 11 -382 28 -423 21 -27 -5
-35 -10 -25 -15 18 -10 109 -28 173 -36 34 -5 47 -11 47 -22 0 -13 -8 -14 -47
-8 -27 4 -55 7 -63 7 -45 -1 -224 -22 -228 -27 -3 -3 31 -5 76 -5 44 0 93 -5
109 -11 16 -6 119 -12 240 -13 168 -3 217 0 230 10 17 13 17 15 1 27 -13 10
-14 17 -6 25 9 9 7 17 -7 32 -16 18 -16 20 -1 26 9 4 43 -1 74 -10 55 -15 58
-15 84 4 34 25 53 25 88 0 24 -17 39 -19 110 -15 46 3 88 1 94 -4 6 -5 34 -18
61 -29 l50 -20 -35 -7 c-25 -4 -48 0 -83 15 -27 12 -56 19 -65 15 -9 -3 -48
-10 -86 -15 -54 -7 -78 -5 -104 6 -47 19 -68 18 -86 -8 -19 -26 -6 -55 30 -68
46 -18 28 -32 -32 -24 -51 6 -56 5 -61 -15 -6 -25 -34 -27 -68 -5 -36 23 -69
15 -73 -18 -3 -27 -5 -28 -61 -28 -41 0 -62 5 -72 16 -8 10 -20 13 -33 9 -12
-4 -52 -10 -91 -13 -61 -6 -70 -9 -67 -26 2 -11 -9 -30 -27 -47 -28 -25 -36
-27 -80 -22 -41 5 -54 2 -76 -16 -15 -11 -54 -26 -87 -33 -47 -10 -62 -17 -69
-35 -7 -19 -16 -23 -52 -23 -39 0 -45 -3 -58 -32 -12 -28 -19 -33 -49 -33 -31
0 -35 3 -32 24 1 13 10 30 19 36 15 11 15 15 3 29 -19 24 -65 17 -65 -9 0 -11
-10 -30 -22 -42 -13 -13 -23 -27 -23 -33 0 -5 -21 -10 -47 -11 -42 0 -45 -2
-25 -11 12 -6 22 -17 22 -25 0 -16 -58 -43 -94 -43 -14 0 -31 -8 -38 -18 -19
-28 -57 -44 -84 -38 -13 4 -40 0 -60 -9 -20 -8 -48 -15 -63 -15 -14 0 -32 -4
-39 -9 -18 -11 7 -21 54 -21 65 0 34 -32 -44 -45 -36 -6 -42 -10 -37 -26 17
-52 9 -80 -33 -119 -23 -21 -42 -43 -42 -48 0 -21 -70 -114 -157 -209 -24 -26
-43 -54 -43 -63 0 -9 -5 -21 -11 -27 -9 -9 -15 -28 -18 -55 -1 -4 -14 -14 -30
-23 -24 -12 -31 -23 -36 -57 -11 -78 -14 -102 -25 -161 -6 -32 -8 -62 -5 -67
3 -5 -4 -14 -16 -20 l-21 -12 21 -20 c19 -17 22 -30 21 -96 -2 -80 2 -134 21
-285 6 -48 8 -95 5 -103 -6 -16 28 -152 42 -166 4 -4 45 -21 91 -37 45 -16 92
-38 104 -49 12 -11 37 -27 55 -36 17 -9 32 -21 32 -26 0 -5 18 -19 40 -30 22
-11 40 -26 40 -34 0 -7 9 -25 21 -39 16 -21 18 -31 9 -47 -10 -18 -21 -20
-148 -21 -75 -1 -166 0 -201 1 l-63 2 6 -79 c3 -43 6 -88 6 -100 -2 -56 -2
-147 0 -253 1 -63 -3 -137 -9 -164 -6 -26 -8 -53 -4 -60 4 -6 6 -21 5 -33 -2
-11 2 -24 7 -28 6 -3 167 -8 358 -10 433 -4 513 -12 438 -47 -31 -14 -42 -45
-23 -64 11 -11 48 -15 159 -15 88 0 169 -6 207 -15 35 -8 84 -14 110 -14 55
-1 160 -24 175 -39 6 -6 25 -11 42 -11 18 0 58 -9 90 -20 32 -11 66 -20 75
-20 10 0 46 -13 81 -29 35 -16 93 -36 129 -45 72 -19 93 -32 66 -42 -10 -4
-48 3 -85 15 -76 24 -88 25 -156 7 -33 -9 -51 -19 -54 -31 -2 -14 1 -16 15
-10 71 29 72 29 129 11 49 -15 54 -19 45 -36 -16 -29 -12 -39 18 -52 15 -7 47
-26 70 -42 l44 -31 -4 -65 c-3 -36 -8 -73 -13 -82 -5 -13 -1 -20 16 -27 l24
-9 -27 -11 c-36 -13 -35 -25 2 -63 l30 -30 0 26 c0 36 19 42 44 14 11 -14 29
-28 38 -31 21 -7 35 -54 20 -69 -7 -7 -20 -7 -41 0 -28 10 -33 9 -47 -13 -20
-30 -44 -32 -67 -5 -10 12 -21 18 -26 15 -5 -2 -53 -7 -107 -10 -55 -3 -123
-10 -152 -16 -30 -6 -79 -8 -111 -4 -46 5 -60 3 -71 -10 -12 -14 -7 -15 48
-13 38 1 66 -2 74 -10 7 -7 35 -12 64 -12 77 0 84 -5 84 -56 0 -30 5 -46 15
-50 10 -4 15 -20 15 -45 0 -31 7 -46 40 -79 39 -40 60 -45 60 -14 0 8 5 14 11
14 6 0 9 -7 6 -14 -3 -8 5 -25 18 -38 17 -16 25 -34 25 -60 0 -24 8 -46 25
-66 14 -17 25 -35 25 -41 0 -6 8 -11 19 -11 20 0 33 -32 24 -57 -3 -8 -26 -24
-52 -35 -38 -16 -49 -17 -69 -7 -18 10 -38 10 -93 1 -38 -7 -92 -12 -119 -12
-58 0 -69 -12 -34 -35 40 -26 97 -30 144 -11 60 24 81 10 67 -44 -11 -41 -18
-45 -69 -41 -16 1 -28 -3 -28 -8 0 -6 4 -11 8 -11 12 0 44 -59 37 -70 -11 -18
-35 -10 -47 15 -6 14 -15 25 -19 25 -11 0 -30 -70 -23 -82 13 -21 54 -27 81
-13 16 8 36 16 46 19 10 3 17 15 17 30 0 40 51 62 102 45 37 -12 40 -11 68 16
16 15 30 37 32 47 2 13 17 25 43 34 61 21 102 18 128 -10 31 -33 114 -76 148
-76 23 0 28 -5 31 -27 4 -37 31 -41 46 -8 21 46 16 58 -22 52 -21 -3 -39 -1
-45 6 -14 17 14 71 53 104 17 14 39 39 48 54 10 16 39 39 65 51 57 28 64 45
26 59 -16 6 -40 29 -57 55 l-29 46 18 66 c10 37 22 74 26 82 4 8 15 32 25 53
26 54 49 64 70 32 28 -42 59 -29 32 14 -15 24 -4 51 22 51 11 0 20 6 20 14 0
8 19 28 43 46 34 25 48 30 76 25 25 -5 39 -2 55 13 46 42 223 121 289 130 23
2 51 15 70 33 38 35 61 34 65 -4 3 -23 -4 -31 -42 -54 -24 -16 -47 -35 -49
-44 -2 -9 -22 -22 -43 -29 -48 -15 -141 -66 -171 -93 -17 -15 -20 -23 -12 -34
6 -7 9 -22 6 -34 -8 -30 20 -35 42 -8 16 19 22 22 32 11 17 -16 5 -27 -63 -62
-42 -21 -54 -33 -56 -54 -2 -15 -11 -30 -20 -33 -22 -8 -112 -100 -112 -114 0
-6 -8 -9 -17 -7 -14 3 -18 13 -18 43 0 36 -3 40 -25 40 -21 0 -25 4 -23 27 2
27 -16 38 -64 38 -30 0 -29 -14 2 -34 30 -20 32 -54 5 -89 -24 -30 -26 -55 -5
-63 24 -10 17 -22 -12 -26 -20 -2 -28 -9 -28 -23 0 -14 11 -22 44 -30 53 -13
63 -30 27 -46 -26 -12 -31 -23 -27 -71 2 -19 -5 -32 -23 -44 -17 -10 -26 -26
-26 -41 0 -28 -49 -112 -66 -113 -5 0 -18 -6 -28 -13 -15 -11 -16 -17 -5 -40
12 -26 10 -30 -31 -72 -34 -35 -41 -48 -32 -57 18 -18 15 -36 -8 -43 -34 -11
-50 -35 -50 -75 0 -29 -6 -41 -24 -54 -13 -8 -27 -29 -31 -46 -7 -34 -36 -46
-84 -37 -39 8 -67 -13 -53 -39 5 -10 7 -37 3 -59 -5 -33 -13 -44 -44 -60 -28
-15 -41 -17 -54 -9 -14 9 -20 6 -30 -14 -7 -13 -13 -36 -13 -51 0 -28 -36 -71
-58 -71 -7 0 -42 -27 -77 -60 -35 -33 -74 -60 -85 -60 -12 0 -24 -9 -30 -24
-6 -18 -19 -26 -49 -31 -45 -8 -48 -11 -26 -42 19 -28 5 -73 -24 -73 -45 0
-145 -40 -178 -71 -32 -32 -34 -33 -61 -17 -23 13 -36 14 -80 5 -48 -10 -55
-9 -63 6 -6 9 -16 17 -23 17 -8 0 -19 7 -26 15 -14 17 -67 20 -90 5 -13 -9
-13 -11 0 -20 8 -5 27 -10 41 -10 14 0 48 -11 75 -25 41 -21 61 -25 122 -24
76 2 94 -6 85 -40 -3 -13 -21 -17 -101 -20 -118 -4 -119 -4 -208 5 -49 4 -73
3 -78 -5 -4 -6 1 -14 11 -18 10 -3 31 -15 46 -26 20 -14 38 -18 62 -14 30 5
45 -4 45 -28 0 -13 -42 -25 -56 -17 -9 5 -32 6 -51 2 -70 -16 -317 84 -337
136 -3 7 -20 17 -38 22 -28 7 -33 12 -30 35 4 31 -22 74 -50 83 -11 3 -24 19
-30 35 -10 30 -44 47 -60 31 -7 -7 -5 -21 6 -43 9 -18 16 -42 16 -55 l0 -23
-33 19 c-62 37 -76 112 -23 126 49 12 42 54 -23 123 -23 24 -41 51 -41 60 0 9
-5 23 -10 31 -8 13 -13 13 -30 2 -26 -16 -50 -1 -50 32 0 12 -5 27 -11 33 -6
6 -12 49 -14 95 -2 45 -3 86 -4 89 -1 9 -49 18 -56 11 -3 -3 0 -11 7 -19 8
-10 8 -23 -2 -53 -7 -22 -16 -40 -19 -40 -3 1 -16 16 -28 35 -18 29 -19 36 -7
52 19 25 18 29 -15 43 -16 6 -37 20 -46 30 -15 16 -15 23 -4 54 12 32 11 38
-8 58 -25 27 -43 69 -43 102 0 13 -9 31 -20 41 -15 14 -20 31 -20 70 0 34 -5
57 -15 65 -21 18 -38 2 -31 -31 3 -15 1 -31 -5 -35 -7 -4 -4 -13 7 -25 10 -11
14 -27 11 -41 -4 -12 -1 -28 5 -35 18 -22 1 -43 -35 -43 -51 0 -66 -23 -70
-110 -2 -67 -5 -76 -26 -86 -19 -10 -33 -9 -68 1 -31 9 -54 10 -79 4 -24 -7
-46 -7 -70 1 -26 9 -43 9 -70 0 -23 -8 -92 -11 -192 -10 -306 5 -844 -11 -866
-25 -16 -10 -34 -11 -80 -3 -47 8 -70 7 -115 -5 -31 -9 -82 -21 -114 -28 -57
-12 -59 -12 -83 14 -14 15 -29 27 -35 27 -29 0 -105 -25 -112 -37 -6 -9 -20
-11 -46 -7 -24 4 -50 0 -77 -11 l-39 -17 30 -14 c17 -7 38 -13 48 -14 9 0 17
-7 17 -16 0 -15 -14 -16 -115 -12 -63 2 -118 7 -121 11 -4 4 1 16 10 26 14 16
15 23 6 40 -13 26 -6 41 21 41 10 0 19 5 19 10 0 10 -9 13 -50 14 -22 1 -26 6
-30 47 -3 26 -12 54 -19 63 -11 13 -12 21 -2 39 11 22 9 155 -5 257 -3 25 -1
64 4 87 13 57 -3 119 -40 159 -17 18 -26 37 -23 46 15 38 -47 52 -325 73 -102
7 -218 14 -257 14 l-73 1 0 -704 c0 -695 0 -704 20 -709 28 -7 28 -57 0 -64
-16 -4 -20 -14 -20 -48 0 -36 4 -44 22 -49 l23 -6 -22 -19 c-22 -19 -23 -25
-23 -196 l0 -176 473 2 c425 1 479 3 526 19 29 10 60 25 69 34 15 15 15 17 -3
31 -20 14 -20 14 0 15 11 0 28 -9 38 -21 l18 -20 41 23 c23 13 39 28 37 33 -2
6 -30 9 -65 7 -49 -3 -62 -1 -67 12 -4 10 2 20 16 27 12 6 32 21 44 32 22 20
24 20 55 3 27 -15 47 -17 103 -11 99 9 214 9 327 0 88 -7 100 -6 138 14 22 11
58 21 80 21 21 0 42 5 45 10 4 7 52 10 128 8 110 -3 127 -1 167 20 l45 22 -50
-5 c-27 -3 -131 -8 -230 -11 -99 -3 -195 -10 -212 -16 -18 -5 -65 -11 -105
-13 -40 -1 -114 -6 -164 -10 -98 -8 -123 -3 -104 20 21 26 -24 35 -173 35
-116 0 -147 -3 -157 -15 -14 -17 -53 -20 -80 -5 -11 6 -43 11 -72 11 -80 0
-108 8 -108 29 0 9 7 23 15 30 8 7 15 19 15 26 0 8 5 14 10 14 6 0 10 -8 10
-19 0 -21 55 -31 178 -31 66 0 74 2 79 20 5 19 11 20 132 13 93 -4 129 -10
137 -21 17 -23 673 -21 728 2 21 9 66 16 101 16 40 0 91 9 139 25 42 14 89 25
105 25 16 0 57 9 92 21 44 14 106 23 199 28 123 7 138 5 168 -12 60 -36 52
-38 -233 -60 -120 -9 -166 -16 -184 -29 -18 -12 -29 -14 -42 -7 -24 12 -69 1
-69 -17 0 -7 12 -20 28 -28 15 -8 35 -24 44 -35 16 -18 28 -21 100 -20 46 1
94 4 108 8 24 7 24 8 5 18 -13 7 -51 9 -103 6 -71 -5 -82 -4 -82 10 0 11 12
18 38 22 20 4 55 13 78 21 31 11 47 12 72 3 32 -11 53 -6 235 51 52 17 101 18
146 4 11 -4 12 -7 3 -16 -16 -16 -15 -35 3 -42 22 -8 46 4 43 23 -2 12 6 16
37 16 32 0 40 -4 44 -20 5 -28 19 -35 76 -35 46 0 75 -12 75 -31 0 -21 -35
-39 -75 -39 -24 0 -47 -4 -50 -10 -4 -6 5 -10 19 -10 22 0 26 -5 26 -29 0 -24
-6 -31 -31 -40 -18 -6 -43 -11 -56 -11 -32 0 -83 -27 -83 -44 0 -21 -45 -46
-83 -46 -19 0 -54 -7 -77 -15 -32 -11 -52 -13 -79 -5 -40 10 -92 1 -99 -18 -3
-9 47 -12 201 -12 219 0 217 0 217 50 0 32 39 50 107 50 34 0 85 5 113 11 28
6 54 9 57 6 6 -6 -83 -48 -142 -67 -43 -14 -65 -27 -65 -41 0 -5 50 -9 110 -9
91 0 110 3 110 15 0 20 49 20 56 0 5 -12 24 -15 88 -15 45 0 86 4 92 10 6 6
21 6 43 -3 30 -11 34 -10 51 13 22 29 91 47 235 60 55 5 112 12 126 15 17 5
30 1 39 -10 12 -14 11 -21 -3 -45 -9 -15 -17 -31 -17 -34 0 -3 873 -6 1940 -6
l1940 0 0 2936 c0 2790 -1 2935 -17 2932 -11 -2 -19 -14 -21 -30 -2 -20 -18
-36 -65 -67 -35 -22 -98 -74 -141 -116 -49 -46 -87 -75 -101 -75 -23 0 -47
-22 -58 -52 -4 -12 -17 -18 -36 -18 -33 0 -49 -16 -32 -33 19 -19 12 -36 -21
-53 -27 -14 -59 -17 -168 -15 -74 0 -160 -3 -190 -8 -79 -13 -120 -5 -120 24
0 17 -8 26 -30 34 -20 6 -30 17 -30 30 0 12 10 23 30 30 17 5 30 15 30 20 0 6
-13 26 -30 44 -32 36 -38 65 -18 85 9 9 9 17 0 34 -6 13 -12 32 -14 43 -2 15
-12 21 -41 23 l-37 3 6 39 c6 34 3 42 -28 72 -18 19 -42 37 -52 41 -10 4 -16
13 -13 20 4 12 33 13 100 1 37 -6 54 10 22 22 -17 7 -20 37 -5 65 9 16 7 19
-14 19 -13 0 -37 -7 -52 -15 -42 -21 -101 -20 -113 4 -6 11 -27 21 -53 25 -24
4 -52 13 -63 20 -11 7 -41 16 -68 20 -44 7 -47 9 -45 34 3 24 -1 28 -39 36
-25 6 -43 16 -46 26 -3 12 -19 19 -53 24 -56 7 -175 42 -217 62 -16 8 -38 14
-50 14 -12 0 -32 3 -44 6 -19 5 -20 9 -10 26 10 16 9 22 -7 34 -23 16 -26 17
-46 4 -12 -8 -13 -13 -2 -30 11 -18 10 -20 -13 -20 -15 0 -36 11 -49 25 -13
14 -30 25 -38 25 -17 0 -103 45 -128 66 -15 13 -52 25 -221 73 -61 18 -81 20
-105 11 -33 -13 -88 -5 -118 16 -25 17 -59 18 -141 3 -34 -7 -74 -9 -89 -5
-23 6 -25 9 -15 27 10 19 19 21 137 20 70 0 366 1 657 3 349 2 537 0 552 -6
16 -8 33 -6 65 6 34 14 58 16 119 11 72 -6 76 -6 91 17 9 13 17 33 19 43 3 15
13 21 39 23 63 4 122 13 117 18 -11 11 -162 31 -176 23 -9 -4 -34 -11 -55 -14
-47 -8 -32 -25 22 -25 17 0 32 -4 32 -10 0 -20 -96 -15 -165 8 -62 20 -63 21
-45 32 27 17 -1 24 -80 21 -56 -2 -87 2 -109 13 -31 17 -68 20 -95 10 -21 -8
-20 -24 1 -24 10 0 13 -3 8 -9 -9 -7 -733 -26 -960 -25 -123 1 -235 14 -235
27 0 7 -9 18 -20 25 -29 18 -25 54 7 70 15 6 35 12 45 12 10 0 18 5 18 10 0
13 -26 13 -50 0 -28 -15 -153 -31 -163 -21 -5 5 0 14 12 21 25 13 19 30 -11
30 -12 0 -29 7 -38 15 -15 14 -19 14 -31 -1z m2326 -1543 c3 -5 -4 -16 -15
-24 -36 -25 5 -30 89 -10 57 13 75 15 79 5 5 -17 47 -15 62 3 36 43 67 -6 54
-86 -8 -46 -25 -63 -58 -55 -28 7 -86 -3 -86 -15 0 -4 10 -9 22 -11 32 -5 33
-27 1 -38 -15 -6 -33 -17 -39 -26 -10 -12 -15 -12 -40 1 -16 8 -36 15 -45 15
-19 0 -69 51 -69 71 0 8 -7 24 -15 36 -9 13 -14 40 -13 65 1 24 -2 51 -6 61
-7 15 -3 17 32 17 23 0 43 -4 47 -9z m-2305 -1729 c0 -11 -12 -22 -31 -29 -34
-13 -31 -29 7 -43 35 -14 29 -27 -15 -34 -22 -3 -53 -17 -69 -31 -38 -32 -69
-33 -74 -3 -2 16 -12 24 -32 28 -17 3 -29 8 -28 13 1 4 2 12 2 17 0 6 11 10
24 10 27 0 42 15 26 25 -21 13 12 35 54 35 22 1 52 7 66 15 36 20 70 19 70 -3z
m2152 -20 c16 -16 -31 -103 -64 -116 -33 -12 -36 -22 -8 -31 31 -10 24 -23
-17 -31 -51 -9 -76 -23 -70 -39 8 -20 -14 -35 -52 -35 -20 0 -56 -7 -80 -16
-34 -11 -81 -14 -200 -13 -138 3 -160 1 -188 -16 -46 -27 -51 -13 -13 35 21
27 40 40 56 40 14 0 27 7 31 18 9 25 76 92 93 92 24 1 47 23 63 63 13 31 21
37 46 37 17 0 42 5 56 12 18 8 29 9 33 1 4 -5 42 -13 85 -16 76 -5 77 -5 77
18 0 14 7 25 18 27 22 5 121 -17 134 -30z m-1102 -442 c0 -15 -59 -49 -97 -56
-18 -3 -37 -12 -44 -20 -8 -10 -5 -14 18 -19 58 -13 58 -14 23 -50 -19 -20
-49 -41 -68 -47 -28 -10 -33 -17 -29 -36 3 -15 -4 -33 -17 -49 -21 -24 -25
-25 -59 -14 -20 7 -46 26 -58 42 -25 36 -46 37 -60 2 -8 -21 -6 -30 9 -47 28
-32 34 -54 15 -65 -12 -6 -25 -3 -44 11 l-26 20 -55 -26 c-66 -31 -88 -33 -88
-6 0 16 7 20 35 20 38 0 82 31 70 49 -7 12 -35 15 -35 3 0 -12 -58 -34 -82
-30 -16 2 -22 9 -20 21 2 10 -1 24 -6 30 -13 16 -18 69 -9 85 10 15 57 16 57
0 0 -6 10 -22 22 -35 12 -13 16 -23 10 -23 -7 0 -12 -4 -12 -10 0 -14 33 -13
48 2 18 18 14 45 -9 62 l-21 14 20 11 c32 17 77 13 106 -10 18 -14 34 -19 51
-15 34 9 31 22 -5 30 -16 3 -30 10 -30 15 0 10 85 31 127 31 25 0 26 0 8 -20
-10 -11 -16 -21 -14 -23 60 -44 74 -39 65 21 -5 34 -3 39 31 60 20 13 49 26
65 29 17 3 32 12 35 20 9 24 73 44 73 23z m661 -52 c22 -23 29 -39 27 -61 -5
-55 39 -42 51 14 5 25 13 35 29 37 32 5 36 -20 10 -60 -36 -54 -195 -151 -174
-105 3 6 9 20 12 30 4 9 11 17 18 17 6 0 4 6 -5 13 -9 7 -19 24 -22 39 -6 22
-3 30 13 40 27 17 25 24 -11 37 -17 6 -28 15 -24 21 12 19 47 10 76 -22z
m-121 -90 c0 -15 4 -29 9 -32 4 -3 11 -26 14 -51 7 -44 6 -47 -44 -95 -28 -28
-59 -50 -69 -50 -10 0 -20 -7 -24 -15 -7 -19 -46 -20 -46 0 0 8 9 19 20 25 11
6 20 17 20 25 0 16 -16 20 -24 6 -3 -5 -15 -11 -26 -14 -17 -4 -19 -3 -9 9 6
7 19 55 29 106 16 78 23 97 49 120 29 26 30 26 65 10 27 -13 35 -23 36 -44z
m-3691 -2067 c199 -18 135 -48 -78 -38 -69 4 -152 3 -185 -2 -42 -6 -69 -4
-99 6 -55 19 -64 25 -44 32 28 10 297 11 406 2z m-1071 -64 c2 -16 10 -28 20
-29 9 -1 31 -3 47 -5 17 -2 80 -5 140 -7 61 -2 119 -6 130 -9 11 -4 45 -1 76
6 42 10 85 11 180 4 68 -5 168 -9 221 -9 74 1 102 -3 113 -14 8 -9 15 -19 15
-24 0 -16 -87 -22 -141 -11 -46 10 -58 9 -85 -5 -30 -16 -36 -16 -81 -2 -58
19 -163 13 -163 -8 0 -17 2 -17 113 -14 73 2 87 -1 87 -13 0 -26 -14 -28 -117
-17 -67 8 -114 19 -147 36 -28 13 -56 24 -62 24 -28 0 -22 -20 12 -41 33 -20
35 -23 18 -33 -24 -13 -234 -10 -334 5 -41 7 -124 14 -185 16 -127 5 -127 22
0 24 l80 1 -50 18 c-72 27 -128 23 -197 -11 -10 -5 -20 -5 -23 1 -3 6 1 10 9
10 19 0 22 30 4 31 -23 2 -83 -3 -87 -7 -2 -2 2 -10 9 -19 10 -12 9 -16 -6
-22 -11 -4 -35 -7 -54 -6 -59 2 -281 9 -352 11 -59 2 -68 5 -68 20 0 24 37 35
188 58 72 10 109 20 100 25 -7 5 -25 9 -40 9 -15 0 -30 5 -33 10 -4 6 46 10
144 10 l150 0 47 -32 47 -31 19 26 c23 31 43 33 109 10 45 -16 50 -16 83 0 20
9 36 24 36 33 0 26 25 10 28 -19z m-718 -336 c0 -16 5 -18 35 -11 40 9 87 0
93 -18 2 -6 -7 -22 -20 -35 -20 -20 -35 -24 -95 -25 -63 -1 -71 1 -76 18 -3
13 -14 20 -29 20 -30 0 -48 17 -48 45 0 19 6 21 70 23 63 2 70 0 70 -17z
m2931 -301 c26 -14 24 -36 -5 -55 -18 -12 -63 -16 -208 -19 -102 -3 -203 -10
-224 -16 -33 -10 -46 -9 -77 4 -20 8 -37 22 -37 30 0 13 17 16 93 18 50 1 118
1 150 0 32 -2 84 2 115 9 31 6 73 10 92 10 20 -1 44 5 55 13 24 19 22 18 46 6z"/>
<path d="M6310 6860 c-51 -4 -69 -8 -57 -14 9 -4 33 -5 52 -2 19 4 52 4 72 0
l37 -7 -24 -19 c-24 -20 -24 -20 -5 -34 25 -18 206 -16 212 3 7 19 -64 36
-119 29 -34 -5 -48 -4 -43 4 3 5 17 10 30 10 32 0 75 17 75 30 0 11 -98 11
-230 0z"/>
<path d="M7175 6701 c-74 -8 -105 -17 -105 -32 0 -21 61 -30 185 -27 101 3
138 8 164 22 23 12 30 21 23 28 -13 13 -173 18 -267 9z"/>
<path d="M3838 6694 c-4 -3 -93 -6 -198 -6 -166 0 -191 -2 -188 -16 2 -8 27
-24 56 -35 42 -16 51 -23 47 -38 -5 -14 2 -19 37 -24 24 -3 79 -5 123 -3 73 3
77 4 53 15 -30 13 -36 29 -15 36 6 2 40 2 74 -1 75 -6 109 2 123 28 8 15 7 21
-7 28 -25 13 -97 24 -105 16z"/>
<path d="M7248 6060 c-108 -3 -200 -9 -205 -13 -4 -5 3 -17 16 -26 87 -66 441
-50 441 20 0 17 -22 31 -43 27 -7 -1 -101 -5 -209 -8z"/>
<path d="M2931 6038 c-19 -7 -22 -13 -16 -31 5 -12 8 -39 9 -60 0 -37 1 -38
31 -30 16 3 51 6 78 4 59 -3 74 5 52 29 -15 17 -15 19 7 34 12 9 35 16 50 16
54 0 36 17 -30 28 -99 17 -155 20 -181 10z"/>
<path d="M490 4070 l-45 -5 -6 -145 c-3 -80 -4 -176 -2 -215 1 -38 4 -127 5
-197 1 -70 5 -133 9 -140 12 -19 472 -17 494 2 13 11 15 40 10 202 -2 104 -7
193 -10 198 -3 5 -1 44 6 87 13 90 12 194 -2 208 -10 10 -375 14 -459 5z"/>
<path d="M3396 1392 c-8 -13 0 -138 10 -153 5 -8 8 -61 6 -119 -3 -124 2 -156
29 -163 11 -3 16 -1 13 5 -3 5 -1 22 6 37 7 19 8 40 2 62 -5 21 -4 44 1 60 6
15 7 34 2 45 -5 10 -9 57 -10 104 0 55 -6 93 -15 108 -15 22 -35 29 -44 14z"/>
</g>
</svg>
