<?xml version="1.0" standalone="no"?>
<!DOCTYPE svg PUBLIC "-//W3C//DTD SVG 20010904//EN"
 "http://www.w3.org/TR/2001/REC-SVG-20010904/DTD/svg10.dtd">
<svg version="1.0" xmlns="http://www.w3.org/2000/svg"
 width="800.000000pt" height="800.000000pt" viewBox="0 0 800.000000 800.000000"
 preserveAspectRatio="xMidYMid meet">
<metadata>
Created by potrace 1.16, written by Peter Selinger 2001-2019
</metadata>
<g transform="translate(0.000000,800.000000) scale(0.100000,-0.100000)"
fill="#000000" stroke="none">
<path d="M4 7903 c3 -54 7 -149 8 -211 1 -116 9 -142 44 -142 12 0 14 35 14
209 0 115 -3 216 -6 225 -4 10 -18 16 -36 16 l-31 0 7 -97z"/>
<path d="M905 7703 c3 -164 8 -321 10 -350 2 -29 6 -134 9 -235 3 -101 8 -230
11 -288 2 -58 7 -170 11 -250 3 -80 9 -148 13 -152 4 -4 29 -9 56 -10 l50 -3
0 125 c0 69 -4 220 -9 335 -5 116 -10 253 -11 305 -2 52 -6 199 -9 325 -4 127
-7 275 -8 330 0 55 -3 115 -6 133 l-4 32 -60 0 -61 0 8 -297z"/>
<path d="M2304 7683 c4 -175 8 -352 9 -393 2 -55 5 -74 15 -72 10 2 10 -3 -1
-25 -7 -16 -12 -36 -10 -45 3 -10 -5 -31 -17 -48 -18 -25 -19 -29 -4 -23 11 4
15 3 11 -4 -4 -6 -1 -13 5 -16 10 -3 10 -7 -1 -20 -7 -9 -11 -23 -8 -31 3 -7
1 -18 -5 -24 -5 -5 -11 -38 -12 -71 -1 -44 -4 -60 -13 -56 -16 6 -17 -11 -1
-21 6 -4 17 1 25 11 10 15 13 16 13 4 0 -9 -3 -19 -7 -22 -3 -4 -8 -24 -10
-45 -4 -35 -3 -36 11 -17 9 11 16 15 16 8 0 -6 -6 -18 -14 -25 -7 -8 -17 -30
-21 -49 -4 -19 -14 -46 -21 -61 -15 -29 -18 -58 -6 -58 4 0 16 19 27 42 19 40
75 118 75 104 0 -4 -10 -26 -22 -49 -12 -23 -24 -55 -28 -72 -3 -16 -11 -30
-18 -30 -17 0 -32 -25 -32 -52 0 -13 -5 -23 -11 -23 -6 0 -8 -7 -5 -16 3 -8 2
-13 -3 -10 -5 3 -21 -31 -35 -77 -29 -91 -31 -101 -16 -92 13 8 13 8 -9 -54
-10 -30 -21 -47 -24 -40 -3 8 -3 0 0 -16 4 -26 -2 -38 -38 -75 -24 -25 -42
-48 -41 -52 1 -4 -9 -15 -23 -24 -43 -28 -65 -75 -71 -158 -5 -56 -4 -76 5
-76 7 0 9 -4 6 -10 -3 -5 1 -10 9 -10 9 0 16 -5 16 -11 0 -5 -6 -7 -12 -4 -7
4 -5 0 4 -8 17 -13 37 -54 52 -104 5 -16 2 -23 -11 -26 -16 -4 -15 -6 5 -12
20 -7 26 -19 25 -52 -1 -7 4 -13 9 -13 6 0 8 -7 4 -15 -3 -8 -1 -15 5 -15 7 0
10 -35 9 -97 -2 -135 -2 -136 14 -130 19 8 26 -23 10 -43 -7 -8 -31 -49 -55
-90 l-42 -74 7 -96 c3 -52 13 -124 21 -160 8 -36 15 -90 15 -120 0 -30 4 -62
10 -70 5 -9 5 -19 0 -25 -12 -14 -1 -175 11 -175 5 0 9 -6 9 -14 0 -7 7 -27
15 -42 8 -16 15 -39 15 -51 0 -12 5 -25 11 -29 8 -4 7 -9 -2 -15 -10 -6 -11
-9 -1 -9 6 0 12 -7 12 -16 0 -9 6 -22 14 -28 8 -6 16 -20 18 -30 2 -16 -15
-25 -103 -56 -247 -86 -492 -259 -562 -396 -14 -28 -33 -56 -41 -63 -29 -24
-104 -155 -125 -218 -12 -34 -21 -84 -21 -111 l0 -48 -89 -48 -90 -47 1 28 c2
72 -26 255 -40 270 -14 13 -16 13 -24 -1 -13 -23 -25 -113 -33 -236 l-7 -104
-60 -57 c-64 -60 -67 -71 -43 -146 6 -18 3 -23 -11 -23 -9 0 -115 -39 -233
-86 -179 -72 -384 -144 -410 -144 -4 0 -12 14 -19 32 -9 24 -15 29 -23 21 -7
-7 -12 -25 -11 -42 1 -27 -5 -31 -56 -52 -31 -12 -87 -38 -124 -56 l-68 -34 0
-1300 0 -1299 1658 0 c1276 0 1661 3 1670 12 9 9 15 9 24 0 9 -9 232 -12 942
-12 511 0 927 3 924 6 -8 8 -103 33 -168 44 -78 14 -393 58 -465 65 -141 14
-276 35 -295 45 -11 6 -26 8 -32 4 -6 -4 -8 -3 -5 2 3 6 -29 21 -71 34 -42 13
-80 28 -83 33 -4 5 -45 10 -93 11 -71 2 -91 6 -116 24 -17 13 -34 21 -39 18
-4 -3 -17 2 -27 10 -15 12 -15 14 -3 11 15 -5 15 0 1 56 -8 34 -20 65 -26 69
-17 11 -17 3 -1 -35 19 -47 19 -67 -1 -67 -14 0 -14 3 -4 15 21 25 4 28 -19 4
-26 -29 -27 -43 -1 -36 15 4 20 0 20 -14 0 -10 5 -19 10 -19 6 0 5 -8 -2 -20
-14 -21 -34 -27 -40 -10 -3 10 -25 17 -80 25 -14 2 -37 9 -50 16 -14 8 -65 14
-135 15 -89 1 -115 5 -128 18 -15 14 -15 16 -1 16 9 0 16 -5 16 -11 0 -6 13
-1 29 10 15 11 50 25 76 31 40 9 51 8 65 -5 12 -11 20 -13 25 -6 3 6 4 11 0
11 -3 0 10 15 28 33 19 18 43 59 56 95 13 34 27 62 32 62 5 0 9 11 9 24 0 13
7 39 15 59 9 23 12 51 8 84 -5 46 -3 51 23 72 27 21 36 23 109 17 132 -11 155
-16 155 -37 0 -13 7 -17 30 -17 16 1 27 5 24 10 -8 13 9 9 30 -7 17 -13 22
-12 43 11 42 45 99 56 292 55 95 0 241 -5 325 -10 83 -6 221 -13 306 -16 166
-6 394 -23 423 -31 9 -3 17 -1 17 4 0 26 -147 48 -435 67 -132 9 -330 24 -440
35 -110 11 -252 25 -315 31 -116 11 -181 28 -212 56 -15 13 -22 14 -48 3 -23
-9 -40 -10 -74 -1 -25 6 -63 11 -86 11 -45 0 -159 54 -168 80 -3 8 -12 23 -20
33 -8 9 -13 17 -10 17 3 0 -2 25 -12 56 -26 86 -9 157 59 243 42 52 107 84
217 107 150 31 464 43 609 24 44 -6 98 -13 120 -16 96 -12 386 -21 569 -17
242 5 298 21 131 38 -32 3 -65 11 -72 17 -8 7 -45 8 -105 4 -74 -5 -99 -4
-122 9 -36 19 -40 19 -32 -1 5 -14 4 -15 -9 -4 -12 10 -13 16 -4 26 9 11 7 14
-10 14 -11 0 -21 -4 -21 -8 0 -4 -9 -8 -20 -8 -11 0 -20 6 -20 14 0 7 -4 10
-10 7 -5 -3 -15 3 -21 13 -12 19 -12 19 -30 1 -24 -24 -44 -24 -61 0 -16 22
-102 38 -113 20 -5 -7 -22 -9 -47 -5 -32 5 -43 3 -56 -13 -12 -14 -36 -21 -84
-25 -42 -4 -68 -3 -68 3 0 12 -53 9 -62 -3 -4 -6 -17 -5 -33 2 -34 16 -45 15
-45 -2 0 -24 -98 -41 -168 -29 -51 8 -59 7 -54 -5 4 -11 0 -13 -18 -7 -12 4
-32 3 -44 -3 -11 -5 -41 -14 -66 -21 -199 -50 -275 -72 -284 -81 -5 -5 -16
-10 -24 -10 -7 0 -43 -30 -79 -66 -76 -76 -87 -106 -71 -198 12 -70 30 -102
61 -112 12 -4 37 -20 55 -35 18 -16 39 -29 46 -29 7 0 35 -12 61 -26 l47 -27
-27 -23 c-42 -36 -154 -44 -192 -12 -13 10 -18 9 -34 -11 -10 -13 -31 -24 -46
-26 -109 -13 -196 -28 -243 -43 -58 -17 -64 -19 -80 -21 -6 0 -16 -12 -22 -26
-14 -31 -22 -31 -77 -3 -32 17 -45 20 -48 10 -3 -6 -10 -9 -16 -5 -7 3 -1 -6
12 -20 34 -37 24 -40 -28 -9 -38 22 -41 27 -27 37 14 11 14 14 -4 30 -11 10
-17 22 -14 26 3 5 7 18 9 29 3 18 1 19 -17 9 -17 -9 -23 -8 -31 6 -5 10 -24
34 -41 54 -28 32 -31 41 -26 74 6 32 2 44 -23 80 -17 23 -41 52 -54 64 -12 12
-23 32 -23 43 0 21 -67 94 -115 126 -26 17 -20 45 6 28 7 -4 27 -9 43 -11 16
-2 38 -12 49 -24 13 -14 25 -18 40 -13 42 13 40 45 -3 59 -11 4 -17 12 -13 21
3 7 0 14 -6 14 -11 0 -15 -20 -12 -49 2 -7 -4 -11 -11 -9 -7 3 -13 9 -13 14
-1 5 -5 19 -9 32 -5 14 -3 29 5 38 9 11 9 18 1 26 -9 9 -12 8 -12 -5 0 -10 -5
-14 -14 -11 -8 3 -12 12 -9 20 3 8 2 21 -1 29 -5 14 -8 14 -30 0 -29 -19 -40
-7 -27 28 13 33 -19 101 -57 121 -32 18 -28 19 16 7 29 -9 32 -8 33 12 6 93
-16 193 -55 250 -14 20 -21 37 -16 37 5 0 12 -4 15 -10 11 -19 57 -11 62 10 4
14 23 25 66 39 34 10 63 23 65 29 4 12 -46 114 -61 124 -14 9 -106 -28 -134
-54 -21 -20 -38 -108 -20 -108 5 0 5 -5 1 -12 -5 -8 -14 -4 -28 13 -22 26 -85
49 -132 49 -18 0 -34 7 -41 20 -16 24 0 36 20 15 21 -20 27 -19 27 5 0 11 4
20 10 20 5 0 9 3 8 8 -1 4 4 20 10 35 20 49 15 75 -18 92 -31 16 -33 39 -2 28
14 -5 15 -3 5 8 -7 7 -13 23 -13 35 0 28 -19 35 -46 17 -18 -11 -23 -11 -34 2
-7 8 -18 15 -26 15 -7 0 -18 9 -24 20 -8 14 -21 20 -46 20 -21 0 -33 4 -29 10
3 6 19 10 36 10 16 0 29 4 29 8 0 14 -23 32 -41 32 -21 0 -38 22 -21 28 7 2
12 10 12 18 0 8 5 13 11 11 25 -5 18 22 -10 39 -29 17 -33 51 -5 40 7 -3 16 0
20 5 7 12 114 4 157 -13 28 -11 37 -28 15 -28 -7 0 -4 -6 7 -12 11 -6 23 -15
26 -20 3 -5 24 -11 46 -12 22 -2 48 -8 58 -13 19 -11 12 -33 -11 -33 -8 0 -14
-4 -14 -8 0 -5 27 -9 61 -9 60 0 63 -1 87 -41 5 -8 38 -15 82 -19 58 -5 79
-11 96 -28 14 -14 41 -25 71 -29 26 -4 56 -9 65 -12 13 -4 16 -1 12 10 -5 12
0 16 19 16 14 0 29 -5 32 -10 4 -7 12 -7 18 -2 7 5 47 9 90 10 43 1 87 7 98
12 10 6 38 15 61 19 64 14 148 48 173 71 12 11 29 20 37 20 10 0 21 15 29 37
12 37 88 118 120 128 10 3 25 17 33 31 13 19 25 24 54 23 20 -1 52 2 70 6 20
4 39 2 47 -5 11 -9 21 -7 47 11 18 12 42 34 54 47 17 20 24 23 40 14 35 -19
45 -38 48 -99 2 -32 4 -61 5 -66 1 -9 52 -31 65 -28 5 1 32 -7 60 -18 28 -10
79 -22 114 -25 l63 -6 6 30 c4 23 11 30 30 30 13 0 22 4 19 9 -3 5 -15 7 -25
4 -10 -3 -22 0 -25 6 -4 6 -1 11 6 11 8 0 14 9 14 20 0 22 -16 26 -34 8 -9 -9
-15 -9 -24 0 -9 9 -9 12 0 12 7 0 12 7 12 16 0 9 -6 14 -13 11 -10 -4 -13 2
-9 19 3 19 1 23 -12 18 -10 -4 -16 -1 -16 9 0 24 -22 67 -31 62 -4 -3 -10 -1
-13 4 -3 5 14 14 39 20 24 6 47 15 50 21 3 5 17 10 31 10 14 0 23 4 20 9 -3 5
-15 7 -26 4 -11 -3 -20 0 -20 6 0 6 -11 11 -25 11 -32 0 -32 14 1 28 25 12 25
32 0 32 -8 0 -19 7 -26 15 -10 12 -10 15 4 15 9 0 16 4 16 9 0 5 -10 7 -22 5
-16 -4 -14 -1 7 9 17 8 37 12 45 10 11 -4 12 -3 2 4 -7 5 -10 17 -6 26 4 10 1
17 -6 17 -7 0 -1 9 14 21 18 14 39 20 69 19 65 -3 75 0 45 14 l-27 12 30 19
c16 11 29 25 29 30 0 6 18 18 40 27 22 9 43 24 46 33 4 9 18 28 30 41 13 12
24 27 24 31 0 9 52 43 65 43 4 0 2 -7 -5 -15 -8 -9 -9 -15 -2 -15 6 0 14 5 17
11 4 6 13 8 20 6 7 -3 31 7 55 23 25 17 37 29 28 32 -21 8 -50 -4 -44 -17 2
-7 -5 -16 -17 -19 -29 -7 -36 3 -13 20 11 7 17 17 13 20 -6 7 35 44 48 44 5 0
13 7 20 17 8 11 17 13 26 7 8 -5 19 -9 24 -10 6 0 16 -2 24 -2 7 -1 11 -8 7
-17 -3 -8 -2 -15 3 -15 5 0 11 -9 14 -21 4 -15 2 -19 -8 -15 -7 2 -19 -2 -25
-10 -11 -12 -6 -14 26 -14 l38 0 -28 -29 c-24 -25 -25 -29 -10 -35 11 -4 13
-10 6 -19 -14 -17 -3 -70 14 -63 21 8 26 -10 7 -25 -9 -8 -18 -13 -20 -11 -3
2 -8 0 -11 -4 -4 -4 -1 -4 6 0 19 11 15 -19 -6 -36 -9 -9 -26 -18 -37 -20 -11
-2 -21 -12 -24 -23 -3 -17 -1 -18 13 -6 30 25 19 -13 -14 -47 -16 -17 -25 -34
-20 -37 19 -12 11 -45 -11 -45 -11 0 -17 -5 -14 -10 4 -6 11 -8 16 -5 19 12 8
-7 -18 -31 -18 -17 -22 -24 -10 -20 18 6 21 -1 9 -22 -5 -7 -17 -10 -28 -6
-11 3 -15 2 -9 -3 13 -10 19 -63 7 -63 -5 0 -7 -10 -5 -23 3 -15 -4 -31 -21
-49 -22 -21 -24 -27 -11 -32 8 -3 15 -10 15 -16 0 -6 -4 -8 -10 -5 -5 3 -10 1
-10 -4 0 -6 4 -11 10 -11 5 0 9 -6 7 -12 -1 -7 9 -14 23 -16 18 -2 35 7 60 33
18 19 42 35 51 35 10 0 21 5 24 10 3 6 1 10 -4 10 -16 0 -13 56 3 69 8 7 17
27 20 46 4 21 23 50 49 77 23 23 41 44 40 45 -9 10 -1 33 10 33 8 0 22 9 32
20 10 11 29 20 42 20 12 0 23 5 23 10 0 6 9 10 21 10 12 0 18 -4 13 -11 -10
-16 17 -29 37 -18 34 18 31 -12 -8 -68 -21 -31 -49 -63 -63 -71 -14 -9 -41
-32 -60 -52 -19 -20 -57 -49 -85 -65 -38 -22 -45 -30 -31 -33 24 -5 96 29 96
46 0 10 17 12 70 9 38 -3 70 -1 72 4 2 5 20 6 41 2 27 -4 37 -10 37 -24 0 -20
15 -25 25 -9 3 6 21 10 38 10 18 0 41 7 51 15 11 8 28 13 38 9 14 -4 17 0 16
18 -3 19 1 23 24 20 14 -1 29 2 33 8 9 14 65 12 69 -2 71 -260 106 -365 213
-632 69 -171 129 -318 134 -328 8 -16 5 -21 -24 -33 -36 -15 -51 -43 -36 -66
14 -22 10 -118 -6 -179 -19 -72 -19 -70 13 -70 45 -1 337 -81 677 -185 61 -19
143 -39 183 -45 95 -14 186 -49 287 -110 45 -28 105 -60 134 -70 65 -25 140
-67 263 -147 168 -110 204 -187 207 -437 3 -204 39 -338 114 -416 13 -14 32
-38 41 -53 l18 -27 129 0 129 0 -2 1303 -3 1302 -106 70 c-58 39 -163 122
-235 184 -147 130 -229 176 -341 190 -38 5 -79 13 -93 19 -121 51 -379 98
-614 111 -160 9 -160 9 -171 99 -8 72 -70 253 -120 352 -93 186 -273 375 -492
517 -111 71 -255 137 -343 157 -14 3 -36 15 -50 26 -29 23 -21 33 40 50 63 17
126 108 86 123 -9 4 -17 -1 -21 -14 -4 -10 -11 -17 -16 -14 -5 4 -9 -1 -9 -9
0 -9 -4 -16 -10 -16 -5 0 -6 7 -3 17 4 11 3 14 -5 9 -7 -4 -12 -2 -12 4 0 7 7
10 15 6 17 -6 19 -1 6 22 -5 10 -6 33 -2 52 l7 35 82 10 c67 9 82 8 82 -2 0
-8 -7 -16 -15 -19 -10 -4 -13 -14 -9 -33 4 -14 8 -28 10 -30 6 -7 54 41 49 49
-3 4 9 10 25 14 17 3 30 10 30 16 0 17 -39 11 -60 -10 l-20 -20 0 23 c0 20 19
63 20 44 0 -16 117 55 153 91 19 20 63 90 97 155 49 92 63 129 67 175 5 58
-18 206 -37 243 -6 11 -18 60 -26 110 -20 123 -35 158 -74 165 -38 8 -50 24
-17 24 30 0 57 29 57 61 0 14 4 29 9 35 6 5 11 28 12 52 2 23 7 42 12 42 5 0
4 6 -2 14 -9 11 -9 20 -2 35 7 13 8 22 1 26 -16 10 -12 25 5 19 8 -3 17 0 20
8 4 9 15 13 29 11 26 -5 37 7 55 61 13 37 12 40 -10 57 -32 24 -42 24 -34 -2
6 -16 4 -20 -6 -14 -8 5 -5 -1 5 -13 11 -12 17 -25 13 -28 -9 -9 -46 15 -63
41 -20 31 -14 54 8 31 20 -20 36 -2 18 19 -7 8 -10 15 -7 15 3 0 -5 21 -18 48
-19 39 -21 49 -10 62 18 21 21 61 7 88 -7 12 -11 26 -8 31 7 11 -27 42 -50 45
-10 2 -20 9 -22 16 -3 7 0 10 5 7 5 -3 30 -11 54 -16 l44 -10 -29 24 c-24 19
-30 31 -29 62 1 26 -5 45 -20 61 -20 21 -20 22 -1 23 14 0 15 2 4 6 -8 3 -25
17 -37 30 -23 24 -30 39 -14 29 5 -3 14 1 22 10 10 13 9 16 -9 21 -25 6 -44
55 -36 90 4 13 2 23 -2 22 -5 -1 -12 0 -16 1 -5 1 -11 3 -15 4 -5 1 -23 10
-41 19 -29 16 -31 20 -21 40 15 27 29 87 20 85 -18 -2 -22 3 -13 15 8 9 -3 27
-42 70 -46 50 -79 76 -61 47 3 -5 1 -10 -5 -10 -7 0 -10 7 -6 15 3 10 -5 20
-23 29 -15 8 -35 28 -43 45 -16 33 -51 65 -86 75 -12 4 -20 11 -17 16 6 10
-82 80 -101 80 -7 0 -14 4 -16 8 -4 12 -145 82 -163 82 -8 0 -15 4 -15 10 0 5
-19 14 -42 21 -23 6 -47 17 -53 24 -5 7 -19 15 -30 19 -16 5 -15 3 5 -14 14
-11 22 -20 18 -20 -35 -1 -142 75 -131 92 4 7 -2 9 -15 6 -12 -4 -25 -1 -29 4
-4 7 -1 8 7 3 8 -5 11 -4 6 3 -4 6 -14 8 -23 5 -12 -5 -14 -3 -8 7 5 9 4 11
-4 6 -10 -7 -72 29 -79 46 -2 5 -8 5 -13 2 -6 -3 -17 0 -25 7 -8 6 -17 9 -21
5 -3 -3 -1 -6 5 -6 7 0 12 -5 12 -10 0 -7 -7 -7 -20 0 -11 6 -25 8 -30 5 -6
-3 -10 -3 -10 2 0 8 -36 26 -78 38 -13 4 -20 11 -16 18 5 9 4 9 -5 1 -9 -9
-24 -8 -58 2 -25 8 -71 16 -102 19 -31 3 -65 7 -76 9 -11 3 -24 5 -29 5 -4 1
-5 8 -2 17 3 8 2 13 -3 10 -5 -3 -34 1 -65 9 -31 8 -83 17 -115 19 -33 2 -63
6 -68 9 -5 3 -47 8 -93 11 -78 4 -130 10 -202 21 -18 3 -28 0 -28 -8 0 -9 -28
-12 -104 -12 -71 0 -102 -3 -99 -11 3 -7 -12 -8 -49 -3 -59 8 -170 10 -150 2
6 -2 12 -9 12 -14 0 -6 -4 -8 -9 -4 -6 3 -45 7 -88 9 -42 2 -79 9 -81 15 -2 7
-12 7 -28 1 -14 -6 -23 -6 -20 -2 2 4 -13 8 -35 7 -21 0 -39 -3 -39 -7 0 -3
-14 -4 -31 -1 -45 7 -107 -6 -88 -18 11 -7 10 -9 -6 -10 -49 -4 -125 -29 -125
-41 0 -5 10 -6 23 -2 12 4 30 8 40 8 9 0 17 3 17 6 0 5 127 5 140 0 3 -1 30
-2 60 -2 l55 0 -60 -9 c-33 -5 -82 -10 -110 -12 -27 -1 -53 -6 -56 -11 -4 -4
-38 -9 -77 -10 -38 0 -68 -4 -66 -8 2 -3 -6 -4 -18 0 -14 3 -19 2 -14 -6 4 -7
28 -12 54 -12 26 0 54 -5 62 -11 11 -7 4 -8 -25 -4 -50 7 -98 -3 -92 -19 4 -9
-10 -13 -51 -13 -54 1 -123 -27 -143 -56 -3 -4 -10 -7 -15 -6 -19 6 -54 -13
-54 -28 0 -14 2 -14 18 0 25 23 46 22 37 0 -5 -15 -4 -16 6 -5 7 6 23 12 35
12 12 0 25 6 27 13 3 7 6 5 6 -5 1 -10 -3 -19 -9 -19 -5 -1 -14 -3 -20 -4 -5
-1 -14 -3 -18 -4 -5 0 -9 -7 -9 -15 0 -13 4 -13 28 0 15 8 34 14 41 13 7 0 0
-6 -16 -14 -27 -11 -46 -45 -25 -45 5 0 9 4 9 8 0 4 14 13 30 19 39 15 39 -1
0 -17 -16 -7 -28 -17 -27 -24 1 -6 -9 -10 -25 -8 -33 3 -37 -11 -6 -25 19 -8
20 -10 4 -16 -10 -4 -15 -3 -11 3 9 14 -2 12 -30 -6 -13 -9 -28 -13 -33 -10
-10 6 -30 -13 -30 -29 0 -5 -6 -11 -13 -14 -8 -2 -9 1 -4 10 6 9 2 8 -11 -2
-33 -28 -65 -42 -62 -27 2 7 10 19 18 26 8 8 9 11 3 7 -8 -4 -13 0 -13 9 0 8
-6 17 -12 19 -10 4 -10 8 1 15 9 7 11 19 6 41 -4 20 -3 31 5 31 7 0 8 5 3 13
-4 6 -10 143 -13 302 l-5 290 -34 3 -34 4 7 -319z m1976 -407 c19 -1 41 -5 48
-9 6 -5 16 -6 20 -3 10 6 81 -60 132 -121 19 -24 39 -43 44 -43 5 0 2 7 -5 16
-12 15 -11 16 11 9 14 -4 30 -14 37 -22 7 -9 19 -13 28 -9 9 3 18 -1 22 -10 4
-11 13 -14 29 -10 16 4 30 0 43 -13 14 -14 22 -16 30 -8 8 8 11 5 11 -11 0
-12 -5 -22 -12 -22 -6 0 -8 -3 -5 -6 4 -4 17 0 31 9 22 15 25 15 38 -1 12 -15
11 -16 -4 -4 -9 8 -19 9 -22 4 -3 -6 6 -17 20 -26 l25 -17 -23 -24 c-18 -20
-30 -24 -58 -20 -27 4 -29 3 -10 -3 24 -8 24 -8 5 -20 -28 -16 -7 -15 51 3 27
8 61 15 75 15 27 0 54 -22 42 -33 -3 -4 -1 -7 5 -7 7 0 12 -7 12 -15 0 -8 4
-15 9 -15 5 0 12 -10 16 -22 12 -40 12 -56 -1 -51 -15 5 -24 -22 -20 -59 2
-16 -2 -28 -8 -29 -6 0 4 -7 22 -15 17 -8 32 -19 32 -25 0 -5 3 -8 8 -5 4 2
16 -2 27 -10 18 -13 18 -14 -8 -14 -14 0 -30 7 -35 16 -6 12 -9 8 -9 -16 0
-17 3 -27 6 -22 9 12 59 13 66 2 3 -6 2 -10 -4 -10 -6 0 -8 -15 -6 -35 6 -46
-19 -59 -47 -25 -14 17 -21 20 -28 12 -6 -7 -7 -10 -3 -7 9 7 36 -53 38 -88 3
-31 15 -49 22 -31 2 7 13 10 23 7 15 -4 19 -12 16 -34 -2 -20 1 -29 11 -29 11
0 12 9 8 38 -10 57 -15 72 -26 72 -6 0 -7 -4 -4 -10 3 -6 -4 -10 -17 -10 -36
0 -34 43 2 57 37 14 72 11 78 -6 3 -10 0 -12 -11 -8 -23 9 -28 -19 -6 -39 21
-19 27 -6 7 15 -11 11 -8 12 12 6 14 -4 33 -14 42 -22 9 -8 22 -12 29 -8 8 6
4 12 -12 21 -16 9 -19 13 -8 14 31 0 66 -46 60 -82 0 -5 3 -8 7 -8 5 0 14 -16
22 -35 8 -19 19 -35 24 -35 6 0 12 -11 12 -25 1 -14 -2 -25 -7 -25 -4 0 -6 -7
-3 -15 5 -13 2 -14 -21 -5 -33 12 -35 12 -35 0 0 -5 8 -10 18 -10 13 0 14 -2
4 -9 -10 -6 -5 -12 20 -20 32 -12 32 -13 13 -28 -20 -15 -20 -15 3 -8 13 4 22
2 22 -4 0 -6 -4 -11 -10 -11 -5 0 -10 -4 -10 -10 0 -5 9 -10 20 -10 11 0 20
-6 20 -14 0 -8 8 -17 17 -20 14 -6 15 -9 4 -15 -9 -6 -8 -10 8 -14 14 -3 18
-10 14 -26 -4 -15 -1 -21 11 -21 22 0 21 -20 -1 -21 -17 -1 -17 -2 0 -6 9 -2
24 -17 32 -33 17 -33 19 -44 6 -35 -10 6 -8 -41 2 -51 3 -3 0 -15 -6 -26 -10
-16 -9 -22 6 -32 19 -14 23 -36 7 -36 -5 0 -10 -5 -10 -11 0 -5 4 -8 8 -5 4 2
14 1 22 -5 10 -5 11 -9 3 -9 -7 0 -10 -6 -7 -13 3 -8 -2 -14 -10 -14 -8 0 -13
4 -10 9 3 4 -5 8 -16 8 -16 0 -20 4 -16 16 4 10 -1 22 -11 30 -16 12 -16 13
-1 14 14 0 15 4 5 30 -12 32 -27 40 -27 15 0 -8 5 -15 10 -15 6 0 10 -5 10
-10 0 -6 -3 -9 -7 -9 -20 3 -22 -3 -7 -26 15 -23 12 -65 -6 -65 -4 0 -10 -6
-13 -14 -4 -9 2 -14 16 -13 12 0 29 -3 38 -7 10 -4 23 -1 32 8 13 14 16 14 21
0 10 -26 7 -34 -19 -46 -22 -10 -23 -12 -9 -23 22 -15 10 -57 -13 -48 -11 4
-14 2 -9 -5 4 -7 2 -12 -4 -12 -7 0 -10 6 -8 12 5 13 -14 38 -27 38 -4 0 -5
-6 -2 -14 3 -8 -1 -20 -9 -26 -8 -7 -14 -9 -14 -4 0 4 -5 3 -11 -3 -7 -7 -8
-19 -4 -30 11 -25 12 -46 2 -60 -6 -8 -2 -10 15 -5 21 5 22 4 9 -12 -10 -11
-14 -35 -12 -67 2 -46 -12 -68 -22 -34 -3 11 -4 10 -3 -2 1 -13 9 -17 25 -15
20 2 22 0 11 -13 -6 -8 -17 -13 -22 -12 -16 3 -21 -55 -6 -64 10 -7 10 -9 1
-9 -7 0 -13 -5 -13 -11 0 -5 4 -8 10 -4 5 3 5 -6 -1 -24 -7 -20 -15 -28 -25
-24 -8 3 -14 1 -14 -5 0 -6 5 -12 11 -14 7 -2 5 -9 -5 -17 -14 -11 -16 -11
-16 3 0 23 -17 20 -23 -5 -4 -14 -10 -18 -19 -13 -10 6 -10 5 -2 -7 7 -8 8
-22 3 -34 -11 -28 -11 -35 1 -35 6 0 10 6 10 13 0 6 8 21 16 32 l16 20 -4 -20
c-2 -11 -7 -23 -12 -26 -9 -7 10 -49 23 -49 4 0 6 -22 4 -49 -2 -31 1 -52 8
-57 7 -4 9 -3 5 4 -3 6 -2 13 3 16 5 3 7 16 4 29 -4 18 -3 19 6 7 6 -8 11 -11
11 -7 0 5 5 5 11 1 8 -4 7 -9 -2 -14 -10 -7 -10 -12 -1 -22 9 -11 8 -20 -5
-37 -13 -19 -13 -25 -2 -32 12 -8 6 -13 -12 -11 -4 1 -5 -9 -2 -21 3 -18 1
-17 -12 6 -9 16 -19 26 -23 23 -3 -4 0 -12 6 -18 14 -14 16 -54 3 -62 -4 -3
-14 -26 -21 -52 l-13 -46 -13 30 c-16 38 -30 47 -37 22 -3 -11 -1 -18 3 -15 5
3 11 -9 14 -27 6 -41 5 -117 -1 -100 -7 17 -23 4 -23 -19 0 -10 -4 -19 -9 -19
-17 0 -6 69 12 83 14 10 16 17 8 37 l-10 25 0 -26 c-1 -26 -31 -51 -31 -26 0
8 -4 7 -10 -3 -5 -8 -5 -19 0 -25 11 -13 10 -85 -1 -85 -8 0 -13 18 -12 47 1
7 -3 10 -8 7 -5 -3 -7 -20 -5 -39 3 -25 1 -32 -9 -29 -9 4 -11 -2 -8 -20 3
-16 -3 -36 -16 -55 -12 -16 -17 -31 -11 -33 12 -4 -16 -48 -31 -48 -12 0 -12
37 1 45 6 3 10 24 10 46 0 21 4 39 8 39 5 0 7 -15 5 -32 -3 -31 -3 -32 9 -10
9 19 9 27 0 40 -7 10 -15 25 -18 35 -4 9 -10 17 -15 17 -12 0 -11 -17 1 -25 6
-3 10 -11 10 -16 0 -6 -5 -7 -10 -4 -6 4 -10 3 -9 -2 1 -4 1 -25 0 -45 -1 -30
-4 -36 -17 -31 -10 4 -15 1 -14 -8 1 -8 2 -22 1 -32 -1 -24 -21 -12 -21 13 0
10 -5 22 -11 26 -7 4 -9 0 -5 -14 4 -11 2 -23 -4 -27 -5 -3 -10 1 -10 10 0 9
-5 26 -12 38 l-12 22 -7 -25 c-7 -24 -7 -24 -8 -2 -2 35 -21 26 -22 -10 0 -27
-2 -29 -8 -13 -7 17 -9 16 -16 -13 -4 -19 -21 -50 -38 -69 -21 -24 -31 -45
-29 -62 3 -25 2 -26 -13 -6 -15 19 -15 30 0 68 5 12 2 17 -8 17 -9 0 -18 -8
-22 -19 -3 -10 -14 -26 -25 -36 -19 -17 -20 -17 -21 1 0 12 -6 6 -14 -16 -7
-19 -14 -28 -14 -20 -1 12 -4 12 -17 -2 -17 -17 -10 -43 8 -32 6 4 8 1 6 -7
-3 -8 -11 -13 -17 -11 -6 1 -11 -2 -11 -8 0 -5 6 -10 14 -10 12 0 13 -7 6 -31
-11 -37 -17 -45 -27 -35 -4 4 -1 16 6 27 7 12 10 24 7 27 -3 3 -6 -1 -7 -9 0
-8 -4 -6 -9 6 -8 18 -9 17 -9 -8 -1 -16 -5 -26 -10 -23 -5 3 -8 -44 -7 -107 1
-64 -4 -127 -10 -147 -7 -20 -12 -62 -12 -93 1 -61 -7 -81 -22 -57 -7 11 -10
7 -10 -15 0 -17 6 -37 13 -44 6 -6 12 -25 12 -41 l0 -30 -18 23 c-11 12 -17
15 -14 7 2 -8 7 -25 11 -37 4 -13 3 -23 -3 -23 -5 0 -10 -17 -10 -37 0 -89 0
-94 -12 -87 -9 5 -10 1 -7 -14 6 -23 -7 -31 -15 -9 -2 6 -2 2 0 -10 2 -13 -1
-23 -7 -23 -5 0 -10 -9 -10 -19 0 -11 -6 -22 -12 -24 -10 -4 -9 -8 2 -16 12
-8 12 -13 2 -23 -6 -6 -12 -8 -12 -3 0 15 -29 -29 -30 -45 0 -9 -9 -22 -20
-30 -11 -8 -20 -20 -20 -27 0 -7 -9 -13 -20 -13 -11 0 -20 -4 -20 -10 0 -22
-30 -8 -45 20 -17 34 -11 38 17 13 17 -15 18 -15 13 -1 -5 13 -2 16 17 12 l23
-5 -22 10 c-25 11 -30 26 -13 36 7 4 7 12 2 18 -5 7 -7 24 -6 39 2 16 -5 33
-17 44 -10 9 -19 22 -19 28 1 6 10 0 21 -13 11 -13 22 -21 26 -18 3 4 0 14 -7
23 -11 13 -11 17 -1 24 8 4 11 16 7 28 -9 28 3 74 18 65 6 -4 3 5 -7 20 -9 15
-13 27 -7 27 7 0 7 6 0 20 -6 11 -15 18 -19 15 -5 -3 -12 7 -15 20 -4 14 -11
23 -17 19 -6 -3 -8 -13 -4 -21 5 -14 3 -14 -12 -2 -11 9 -14 10 -9 2 12 -22
15 -53 5 -53 -6 0 -7 -4 -4 -10 3 -5 2 -10 -2 -10 -5 0 -9 17 -9 38 -1 21 -9
51 -18 68 l-17 29 6 -35 c5 -32 4 -33 -9 -15 -8 11 -12 23 -10 27 3 4 -2 5
-10 2 -9 -3 -31 11 -56 36 -23 23 -37 33 -31 22 6 -11 22 -29 36 -40 14 -11
25 -23 25 -26 0 -12 -40 1 -62 20 -13 11 -18 12 -10 3 6 -9 9 -19 5 -22 -3 -4
4 -18 17 -32 13 -14 19 -25 13 -25 -6 0 -13 6 -16 13 -2 6 -8 9 -12 5 -5 -5 0
-17 9 -27 18 -19 17 -20 -10 -16 -16 1 -28 7 -27 12 1 5 -7 9 -17 9 -18 0 -18
-2 -3 -18 12 -13 13 -18 3 -18 -9 0 -8 -6 5 -20 10 -11 15 -20 11 -20 -4 0 14
-18 39 -40 25 -22 40 -40 33 -40 -8 0 -27 13 -44 29 -16 15 -40 32 -53 36 -21
6 -20 3 10 -24 40 -36 14 -33 -38 5 -17 13 -35 24 -39 24 -4 0 1 -7 12 -15 19
-14 18 -14 -3 -15 -24 0 -31 -14 -13 -25 6 -4 8 -11 5 -16 -7 -10 -43 11 -90
50 -16 14 -7 2 22 -27 29 -29 58 -62 64 -74 l11 -21 -31 22 c-17 13 -29 26
-26 31 3 5 -5 10 -17 12 -13 2 -23 9 -23 16 0 8 -7 19 -16 25 -9 7 -23 27 -33
45 -9 17 -19 32 -21 32 -7 0 12 -47 30 -74 9 -13 18 -34 20 -47 3 -12 9 -27
15 -33 8 -8 9 -6 4 7 -9 24 10 19 47 -13 34 -29 37 -40 9 -33 -11 3 -20 10
-20 16 0 6 -3 7 -7 4 -8 -9 38 -53 52 -49 5 2 4 -2 -3 -9 -10 -11 -20 -5 -52
26 -62 61 -47 35 20 -34 33 -34 60 -65 60 -69 0 -4 -12 5 -25 21 -13 15 -28
27 -33 27 -5 0 -21 13 -35 30 -15 16 -39 36 -55 44 -16 8 -36 26 -45 39 -9 14
-27 27 -41 29 -33 7 -33 0 -1 -12 17 -7 36 -32 60 -82 l35 -73 -46 50 c-25 28
-42 43 -38 35 4 -8 9 -27 11 -42 2 -20 -2 -28 -13 -28 -12 0 -14 -4 -7 -12 6
-7 13 -22 17 -33 5 -16 2 -15 -14 5 -11 14 -18 30 -16 36 5 14 -13 34 -32 34
-12 0 -12 -3 -2 -15 6 -8 20 -30 30 -50 14 -28 15 -35 4 -35 -8 0 -21 17 -29
37 -13 30 -18 35 -25 23 -7 -11 -10 -11 -10 -2 0 7 -4 11 -9 8 -13 -9 -42 29
-36 47 4 8 1 18 -5 22 -6 4 -11 1 -9 -6 3 -27 -1 -40 -11 -34 -5 3 -10 16 -11
28 0 12 -3 16 -6 9 -2 -6 -9 -9 -15 -6 -6 4 -5 -2 1 -15 8 -14 8 -21 1 -21 -5
0 -10 6 -10 13 0 8 -4 7 -10 -3 -6 -9 -10 -10 -10 -3 0 6 -8 11 -17 11 -10 0
-27 3 -37 7 -14 6 -17 5 -12 -3 4 -7 2 -12 -5 -12 -7 0 -3 -10 9 -23 26 -28
29 -46 5 -26 -34 27 -63 40 -63 28 0 -8 -5 -8 -15 1 -20 16 -19 6 1 -28 16
-26 16 -26 -10 3 -15 17 -25 24 -21 18 3 -7 0 -13 -7 -13 -7 0 -2 -9 12 -20
l25 -19 -25 6 c-14 3 -28 11 -32 17 -5 8 -8 7 -8 -1 0 -7 -7 -13 -15 -13 -8 0
-15 7 -15 15 0 8 -6 12 -14 9 -7 -3 -13 -13 -12 -22 1 -11 -6 -16 -17 -16 -13
2 -15 -1 -7 -11 8 -10 7 -14 -2 -17 -27 -9 -47 5 -64 45 -23 57 -25 67 -8 67
8 0 14 4 14 10 0 5 7 7 15 4 8 -4 15 -1 15 5 0 6 -4 11 -10 11 -5 0 -10 5 -10
10 0 6 13 9 29 8 16 -1 29 -5 28 -8 -1 -3 2 -6 8 -8 26 -9 11 18 -25 43 -22
15 -37 31 -34 36 3 5 -2 6 -10 3 -9 -3 -17 2 -21 15 -3 12 -14 28 -23 38 -16
16 -16 16 6 11 24 -7 27 -1 12 22 -7 11 -10 11 -10 2 0 -9 -7 -8 -24 5 -16 12
-20 20 -12 25 7 5 5 8 -6 8 -20 0 -25 19 -5 21 23 3 42 1 62 -6 15 -5 13 -1
-8 17 -27 24 -54 88 -36 88 5 0 9 6 9 14 0 15 35 11 58 -7 8 -7 12 -5 12 8 0
21 53 75 74 75 10 0 16 9 17 23 1 16 2 18 6 5 2 -10 8 -18 13 -18 4 0 6 10 2
23 -5 20 -4 21 14 7 17 -14 18 -14 6 2 -8 9 -11 21 -9 25 3 5 -3 9 -13 9 -14
0 -16 -3 -8 -13 7 -9 7 -13 0 -13 -6 0 -16 8 -21 18 -10 16 -12 16 -25 -1 -7
-9 -20 -15 -29 -12 -16 7 -28 50 -20 71 6 17 39 24 52 11 8 -8 11 -8 11 1 0 6
7 9 15 6 8 -4 15 -1 15 5 0 6 10 10 23 8 17 -1 21 2 19 17 -3 18 -2 18 13 2
22 -22 35 -20 35 4 0 24 25 26 47 4 11 -10 18 -12 23 -5 8 14 66 27 128 30 7
1 10 5 7 11 -3 5 0 7 8 4 8 -3 21 2 30 10 9 9 32 16 52 16 32 0 37 -3 32 -20
-6 -24 11 -27 20 -4 5 13 7 13 14 2 8 -12 16 -14 84 -20 17 -2 36 -9 43 -16 8
-7 18 -10 23 -7 5 4 9 -1 9 -9 0 -9 7 -16 15 -16 9 0 18 -7 22 -16 4 -12 9 -9
20 14 8 17 24 32 35 35 17 5 19 11 14 34 -6 26 -5 26 8 10 13 -16 14 -13 13
32 -1 28 -5 51 -8 51 -4 0 -9 19 -11 43 -3 23 -9 51 -13 62 -9 19 -8 20 18 2
14 -9 34 -17 44 -17 16 1 16 2 -2 15 -11 8 -31 24 -44 37 -14 13 -19 15 -12 6
30 -41 -6 -13 -71 55 -39 39 -66 65 -61 57 6 -8 13 -24 16 -35 6 -18 5 -18
-12 3 -13 15 -21 18 -24 10 -3 -7 -10 0 -16 17 -10 23 -14 26 -22 15 -7 -12
-10 -11 -15 6 -3 12 -19 31 -35 43 -18 14 -27 16 -23 7 3 -8 12 -17 20 -20 8
-3 14 -10 14 -16 0 -6 -12 1 -27 15 -15 14 -32 25 -36 25 -5 0 -23 9 -40 21
l-32 21 30 -26 c17 -14 33 -26 36 -26 4 0 9 -7 13 -15 4 -11 -3 -9 -23 6 -16
12 -34 18 -40 14 -6 -3 -11 -3 -10 2 3 12 -12 43 -20 43 -13 0 -5 -37 13 -66
l19 -29 -27 25 c-15 13 -24 30 -22 37 3 7 -1 16 -8 20 -7 5 -21 23 -30 41 -10
19 -20 31 -23 28 -3 -3 0 -12 7 -21 10 -12 10 -15 -2 -15 -8 0 -19 5 -26 12
-9 9 -12 9 -12 0 0 -6 6 -15 14 -19 7 -4 17 -19 21 -32 5 -16 4 -21 -4 -17 -6
4 -11 12 -11 17 0 17 -52 79 -61 73 -5 -3 -9 0 -9 5 0 6 -4 11 -10 11 -5 0 -7
-7 -4 -15 4 -8 1 -15 -5 -15 -6 0 -12 10 -12 23 -1 17 -3 15 -8 -8 l-7 -30
-12 35 c-9 25 -15 31 -21 22 -6 -11 -10 -10 -16 5 -7 17 -8 17 -15 -2 l-9 -20
0 20 c-1 16 -3 17 -11 5 -7 -12 -10 -11 -15 5 -16 48 -27 68 -33 59 -13 -17
-34 -15 -39 6 -3 11 -9 20 -14 20 -5 0 -9 8 -10 18 0 11 -2 12 -6 4 -3 -7 0
-19 7 -26 8 -11 8 -16 0 -21 -7 -4 -14 2 -17 13 -4 15 -13 20 -34 20 -30 -1
-36 -7 -19 -24 6 -6 5 -15 -1 -24 -9 -13 -10 -12 -6 2 3 9 -1 22 -9 29 -12 10
-13 9 -8 -5 10 -27 -4 -18 -20 12 -8 16 -11 35 -6 47 7 18 4 21 -19 23 -14 1
-27 7 -29 12 -2 6 -8 10 -13 10 -6 0 -5 -8 1 -20 8 -16 7 -22 -10 -32 -11 -7
-20 -22 -20 -32 0 -20 0 -20 -15 0 -14 19 -14 19 -15 -1 l-1 -20 -8 20 c-5 11
-4 25 1 32 6 7 8 20 4 28 -5 14 6 20 28 16 5 -1 6 7 3 19 -3 11 0 20 6 20 7 0
4 7 -6 15 -11 8 -17 23 -15 37 5 37 59 29 102 -17 33 -34 37 -36 80 -30 43 7
44 6 39 -16 -4 -14 -2 -20 4 -16 6 4 8 -4 5 -20 -4 -23 -3 -25 19 -20 13 4 31
7 39 7 12 0 12 2 2 9 -8 5 4 8 32 8 34 1 43 -2 39 -13 -3 -8 0 -14 6 -14 6 0
10 3 10 8 -3 19 2 33 11 27 6 -3 10 0 11 7 0 11 2 11 6 0 4 -10 8 -9 19 5 11
14 13 15 14 3 0 -8 9 0 20 18 11 17 24 32 30 32 5 0 10 11 10 25 0 14 3 25 8
25 9 0 8 58 -2 88 -4 12 -12 22 -18 22 -5 0 -8 -6 -5 -12 2 -7 -2 -27 -9 -44
-7 -17 -11 -34 -8 -37 3 -3 0 -8 -7 -13 -8 -5 -10 -3 -4 6 5 9 4 11 -3 6 -7
-4 -12 -14 -12 -22 0 -8 -15 -29 -32 -46 -28 -27 -33 -29 -36 -14 -2 10 -10
15 -18 12 -28 -11 -24 15 8 45 18 18 26 28 18 25 -12 -6 -11 -4 1 6 9 7 20 24
24 37 6 20 5 23 -10 17 -12 -4 -16 -2 -12 7 4 10 -5 13 -36 12 -37 -1 -66 7
-168 48 -18 7 -25 16 -21 26 3 9 1 12 -6 7 -8 -4 -16 2 -21 16 -6 13 -10 20
-10 16 -1 -4 -15 -3 -32 2 -31 9 -76 -3 -91 -25 -5 -6 -8 -4 -8 5 0 9 -10 16
-25 16 -14 1 -25 -3 -25 -10 0 -17 -32 -42 -55 -42 -11 -1 -35 -4 -52 -8 -20
-4 -33 -2 -33 4 0 5 5 10 11 10 5 0 8 4 4 10 -3 5 -12 7 -20 3 -9 -3 -21 -1
-28 4 -6 5 -25 10 -40 11 -37 2 -65 18 -70 39 -15 53 -16 73 -7 73 5 0 10 -6
10 -14 0 -22 40 -7 50 18 4 11 4 28 -1 37 -4 9 -5 19 -2 23 3 3 -2 6 -13 6
-18 1 -18 1 -2 14 10 7 15 15 12 18 -9 9 7 78 17 72 5 -3 6 2 3 11 -4 9 -13
14 -20 11 -7 -3 -16 0 -20 6 -4 6 -3 8 3 5 11 -7 53 28 53 45 0 6 -9 3 -20 -7
-11 -10 -23 -16 -26 -13 -5 6 22 68 30 68 19 0 34 -14 29 -27 -5 -11 -3 -14 6
-9 7 5 10 14 7 22 -3 9 4 16 22 21 29 7 62 33 42 33 -6 0 -8 5 -5 10 3 6 1 10
-5 10 -14 0 -8 25 6 26 21 1 63 28 58 36 -3 5 8 13 25 19 33 12 32 25 -3 51
-21 15 -22 15 -22 -4 1 -12 -6 -23 -14 -26 -13 -4 -13 -3 -2 11 11 13 10 17
-4 25 -16 9 -15 11 4 21 11 6 27 8 35 5 8 -3 17 2 20 10 4 9 15 16 26 16 28 0
37 20 9 21 -15 0 -18 3 -8 6 8 3 18 11 22 17 4 6 22 11 40 11 27 0 32 4 30 20
-4 20 -3 20 11 0 9 -11 18 -17 21 -14 3 3 -2 13 -12 22 -16 15 -21 15 -46 2
-37 -20 -70 -19 -87 2 -10 12 -10 15 -1 9 19 -11 119 13 126 30 9 23 -3 36
-24 29 -11 -3 -29 -1 -41 5 -17 9 -20 9 -14 0 5 -8 3 -11 -6 -8 -8 3 -13 12
-13 21 1 9 -2 15 -6 12 -4 -3 -10 1 -13 9 -4 9 2 12 21 10 l27 -3 -22 19 c-23
18 -32 60 -13 60 5 0 7 -7 4 -15 -4 -8 -1 -15 5 -15 16 0 13 30 -4 36 -8 4
-15 14 -15 24 0 11 -4 22 -10 25 -6 4 -7 -1 -4 -12 4 -13 0 -12 -15 6 -20 22
-21 25 -5 42 10 11 13 19 8 19 -5 0 -1 6 8 13 15 12 15 14 -3 25 -10 7 -19 8
-19 3 0 -5 6 -12 13 -15 6 -3 -8 -3 -33 0 -53 7 -83 21 -75 35 4 5 -1 9 -9 9
-9 0 -16 7 -16 15 0 8 5 15 11 15 5 0 7 5 4 10 -3 6 -15 10 -26 10 -10 0 -19
4 -19 8 0 5 -15 16 -32 24 -31 15 -31 16 -8 15 14 0 31 -5 38 -10 17 -13 16 8
-1 25 -8 7 -12 19 -9 26 2 6 2 12 0 12 -2 0 -18 4 -36 9 -24 7 -35 6 -47 -5
-12 -12 -18 -13 -37 -2 -13 7 -26 12 -30 13 -12 0 -22 15 -10 15 7 0 12 7 12
15 0 19 17 19 27 0 10 -18 53 -9 53 12 0 7 -13 22 -30 31 -16 9 -30 23 -30 30
0 9 8 7 26 -7 31 -24 53 -28 30 -6 -8 8 -19 15 -25 15 -6 0 -11 5 -11 10 0 6
-7 10 -15 10 -8 0 -19 9 -25 21 -13 24 -4 41 10 19 5 -8 12 -12 15 -8 4 3 20
2 37 -2 24 -7 29 -6 24 5 -4 11 4 13 36 9 37 -5 40 -3 28 11 -15 18 -15 19 25
34 17 6 20 9 8 7 -14 -2 -20 0 -17 9 3 7 -5 15 -18 19 -18 5 -20 8 -9 15 8 5
10 14 6 21 -4 7 -2 16 6 21 10 6 8 9 -8 9 -13 0 -23 5 -23 10 0 12 20 13 39 1
11 -7 12 -13 3 -23 -7 -9 -8 -19 -2 -28 7 -12 11 -7 16 18 4 17 10 32 15 32 5
0 9 4 9 10 0 5 -7 6 -17 3 -11 -4 -14 -3 -9 5 4 7 18 10 32 8 19 -4 27 2 39
24 9 18 11 31 5 35 -6 3 -10 12 -10 18 0 7 5 4 11 -5 11 -20 29 -24 29 -6 0 6
-3 9 -6 6 -11 -11 -41 29 -46 61 -5 34 -1 38 16 17 9 -13 14 -11 28 8 17 23
17 24 -5 19 -20 -5 -20 -4 -6 8 9 8 19 22 23 33 5 14 2 17 -10 12 -10 -4 -14
-1 -12 6 3 7 17 14 32 16 19 2 26 8 22 18 -3 8 1 14 9 14 8 0 18 6 22 14 4 7
30 21 58 31 27 9 54 20 60 24 24 19 124 49 161 50 23 0 72 10 110 22 38 12 99
22 135 23 37 0 65 4 63 8 -2 4 17 10 43 14 27 3 53 11 59 16 7 5 16 8 20 6 10
-2 126 11 159 19 24 5 75 10 129 12 31 1 36 4 27 14 -8 11 -5 13 19 9 l30 -4
-23 -19 -22 -20 33 5 c17 2 32 0 32 -5 0 -6 5 -7 11 -3 29 17 73 14 96 -8 30
-28 53 -74 53 -106 0 -14 6 -30 14 -36 18 -15 44 -119 62 -246 8 -58 18 -125
23 -150 6 -28 6 -49 0 -56 -6 -8 -5 -13 3 -17 13 -4 55 -99 69 -155 19 -71 17
-79 -16 -72 -5 1 -83 3 -173 4 -154 1 -167 -1 -163 -27 1 -5 -3 -6 -9 -2 -6 3
-8 9 -6 13 2 4 -48 8 -113 9 -67 2 -108 -1 -96 -6 15 -6 8 -9 -31 -15 -28 -3
-59 -13 -70 -21 -10 -8 -22 -15 -26 -15 -9 0 23 72 37 82 5 4 6 11 1 15 -4 4
-17 -5 -28 -20 -16 -22 -23 -26 -30 -15 -7 9 -8 7 -5 -9 3 -13 1 -23 -4 -23
-5 0 -9 10 -10 23 -1 20 -2 20 -12 -6 l-11 -27 -12 27 c-12 27 -12 27 -8 -12
l4 -40 -10 33 c-6 18 -15 30 -20 27 -5 -3 -12 6 -16 21 l-7 26 -13 -32 c-12
-27 -16 -30 -29 -20 -8 7 -15 9 -15 4 0 -5 -8 0 -17 11 -10 13 -14 15 -10 4 3
-9 1 -22 -4 -30 -7 -11 -10 -9 -15 9 -4 12 -11 22 -16 22 -5 0 -6 -5 -3 -10 9
-15 -5 -51 -17 -44 -5 3 -8 15 -5 25 3 11 1 17 -3 14 -5 -3 -12 4 -15 16 -4
11 -9 19 -11 16 -2 -2 7 -34 21 -71 29 -76 32 -101 6 -41 -10 22 -22 40 -27
40 -5 1 -20 7 -34 14 l-25 14 19 -22 c11 -11 16 -24 12 -28 -3 -4 6 -20 21
-37 26 -28 26 -29 3 -11 -14 11 -37 31 -52 44 -24 21 -28 22 -28 7 0 -9 -4
-15 -9 -12 -5 3 -12 -1 -15 -10 -3 -8 -2 -12 3 -9 5 3 12 1 15 -4 8 -13 -18
-21 -46 -14 -22 5 -22 5 -4 -9 17 -14 17 -15 2 -21 -9 -4 -15 -3 -12 1 2 4 -4
8 -14 8 -18 0 -18 -2 -4 -18 9 -9 13 -21 10 -27 -4 -5 -2 -12 4 -16 6 -4 8
-11 5 -16 -4 -5 -1 -9 5 -9 6 0 9 -4 5 -9 -3 -5 -1 -12 5 -16 5 -3 10 -11 10
-16 0 -6 -7 -4 -15 5 -8 8 -15 19 -15 23 0 5 -12 25 -26 44 -15 19 -23 25 -19
14 4 -11 9 -41 10 -66 3 -51 13 -75 45 -104 l23 -20 -18 35 c-16 31 -16 33 -2
21 10 -7 21 -28 27 -45 l10 -31 -3 33 c-4 38 0 41 13 7 10 -26 30 -34 31 -12
0 6 5 1 10 -12 7 -19 12 -22 21 -13 19 19 28 14 28 -15 1 -25 2 -26 14 -11 7
10 16 15 19 11 4 -3 7 6 7 21 0 15 4 25 9 21 5 -3 8 -22 5 -43 -2 -20 -1 -31
2 -23 5 11 8 11 15 0 7 -11 11 -10 24 6 16 20 16 20 6 -1 -14 -29 -40 -147
-35 -156 3 -5 0 -8 -6 -8 -7 0 -8 -6 -1 -19 8 -15 7 -20 -5 -25 -9 -4 -14 -13
-10 -21 3 -9 -3 -19 -14 -25 -11 -6 -20 -15 -20 -21 0 -6 7 -6 20 1 16 9 22 8
26 -5 3 -8 10 -12 15 -9 5 3 9 -2 9 -11 0 -9 6 -15 13 -13 6 1 26 -6 44 -15
18 -9 34 -17 36 -17 3 0 1 19 -5 42 -10 49 -4 88 16 88 7 0 18 10 24 23 6 12
11 17 11 10 1 -8 13 -10 36 -6 39 6 45 -5 16 -31 -11 -10 -24 -30 -29 -44 -10
-29 -9 -30 81 -34 20 -1 37 -5 37 -8 0 -11 -46 -51 -52 -45 -3 3 -17 -1 -32
-9 l-27 -14 25 -4 c14 -3 27 0 29 6 2 6 8 8 12 4 4 -4 2 -14 -5 -23 -10 -12
-9 -16 6 -21 11 -3 26 -10 34 -15 8 -5 23 -12 33 -15 9 -4 17 -13 17 -21 0
-12 3 -13 15 -3 8 6 19 9 24 6 5 -4 12 -2 16 4 4 6 11 7 17 4 6 -4 8 -2 4 4
-3 6 -2 13 4 17 6 3 10 -4 11 -17 l0 -23 11 22 c10 21 12 22 24 5 12 -16 13
-15 14 7 0 19 4 22 23 18 50 -12 152 -19 138 -8 -12 8 -10 11 11 16 25 7 48
35 28 35 -6 0 -10 4 -10 9 0 6 12 6 32 0 50 -14 78 -11 84 9 3 9 10 26 15 37
7 16 7 14 4 -10 -5 -28 -4 -27 15 10 11 22 20 32 20 23 0 -10 5 -18 11 -18 6
0 8 7 5 16 -5 13 -2 15 16 10 13 -3 28 -6 34 -6 7 0 15 -7 18 -16 3 -9 2 -12
-4 -9 -6 4 -13 -8 -17 -25 -3 -18 -13 -34 -21 -38 -12 -4 -11 -7 6 -13 17 -7
22 -17 22 -44 0 -20 4 -45 10 -55 5 -10 12 -51 14 -92 3 -40 8 -81 12 -91 4
-11 7 -54 8 -98 1 -43 5 -79 9 -79 5 0 7 -75 4 -166 -5 -137 -9 -170 -23 -185
-13 -14 -14 -22 -5 -32 10 -13 1 -139 -23 -307 -7 -48 -7 -106 0 -164 4 -27 2
-46 -2 -43 -5 3 -8 -27 -7 -66 2 -46 0 -65 -6 -52 -4 11 -6 26 -3 34 4 9 1 12
-7 7 -8 -5 -10 -22 -5 -54 4 -26 3 -44 -1 -40 -4 4 -9 18 -10 30 -4 38 -5 39
-16 33 -6 -4 -8 -13 -5 -21 8 -22 -4 -43 -21 -37 -13 5 -13 1 2 -26 9 -18 14
-35 11 -38 -2 -3 -14 13 -26 36 -23 46 -35 55 -20 15 6 -14 7 -31 3 -37 -4 -7
-9 -3 -14 9 -6 15 -8 12 -8 -13 -1 -19 -8 -36 -18 -42 -10 -6 -14 -11 -9 -11
5 0 2 -7 -5 -16 -12 -14 -11 -16 5 -13 11 2 24 19 31 39 10 28 13 31 17 15 2
-11 -5 -33 -16 -50 l-20 -30 23 20 c13 11 28 31 34 45 8 20 11 22 14 8 3 -10
-3 -25 -11 -34 -9 -8 -16 -30 -16 -47 0 -25 -3 -29 -11 -17 -9 13 -10 13 -6 0
2 -8 10 -14 16 -13 6 2 12 -9 13 -25 5 -90 9 -102 19 -57 9 43 11 108 2 87 -2
-6 -9 -9 -15 -6 -5 4 -3 13 6 23 9 9 17 27 19 39 2 12 7 25 11 29 5 5 7 -4 4
-19 -3 -17 0 -29 8 -32 8 -3 14 -11 14 -18 0 -10 -2 -10 -9 0 -5 8 -8 -16 -7
-60 1 -40 5 -78 9 -85 4 -6 2 -13 -4 -15 -6 -2 -3 -13 10 -28 l20 -25 -5 28
c-2 15 -1 27 3 27 5 0 8 36 8 79 0 45 4 79 10 78 5 -1 10 9 11 23 1 14 5 45 9
70 4 25 3 62 -3 83 -11 41 -7 49 8 15 9 -21 10 -21 8 7 -1 17 1 36 5 42 5 7 3
21 -3 32 -13 26 -13 34 2 25 7 -5 8 -3 3 6 -17 27 0 178 46 420 24 128 37 324
34 525 -2 194 -5 217 -30 303 -29 100 -28 138 4 217 23 56 21 78 -8 85 -37 9
-50 36 -27 57 10 10 16 13 12 6 -3 -6 -2 -14 4 -18 5 -3 10 -2 10 2 0 12 38
14 45 2 4 -5 11 -9 17 -9 7 0 7 4 -1 13 -6 8 -9 17 -6 20 3 4 2 5 -2 2 -3 -3
-12 0 -19 6 -13 11 -9 64 7 84 4 6 4 17 0 24 -5 8 -3 28 5 47 8 18 16 50 19
71 4 21 9 45 12 53 3 8 8 24 10 34 2 10 11 24 20 31 9 7 14 19 10 28 -3 9 1
18 10 21 14 6 14 8 -1 25 -9 9 -13 21 -9 24 3 4 2 7 -4 7 -6 0 -9 8 -7 18 3
10 -7 31 -25 51 -16 18 -33 47 -37 65 -3 17 -20 72 -36 121 -16 50 -31 101
-34 114 -3 13 -9 32 -15 42 -12 23 -54 214 -64 289 -12 98 -58 242 -93 293
-14 21 -25 51 -25 68 0 20 -4 26 -11 19 -5 -5 -14 -10 -20 -10 -5 0 -6 3 -3 6
3 4 1 16 -4 27 -10 18 -9 19 22 13 19 -4 50 -8 69 -10z m105 -1247 c-22 -11
-32 -17 -22 -14 10 3 36 8 57 11 36 6 38 5 33 -15 -3 -12 -13 -21 -24 -21 -10
0 -21 -5 -25 -11 -4 -8 1 -9 17 -4 22 7 23 6 9 -10 -16 -20 -21 -37 -23 -83
-1 -28 -4 -32 -21 -28 -12 2 -52 8 -91 12 -73 8 -83 10 -87 14 -2 1 -26 4 -53
6 -63 4 -109 20 -99 35 3 6 -5 4 -18 -5 -21 -13 -31 -14 -54 -5 -29 11 -29 11
-6 20 13 5 20 13 17 19 -4 6 6 10 24 10 17 0 31 4 31 8 0 5 16 16 35 25 19 9
35 13 35 9 0 -5 7 -9 15 -9 8 0 12 3 10 7 -2 3 5 12 17 19 13 8 18 8 13 1 -5
-8 6 -9 37 -5 23 4 51 6 61 6 9 0 15 3 13 7 -2 4 15 7 39 6 23 -1 49 2 56 7 8
5 21 8 29 8 8 0 -3 -9 -25 -20z m-64 -300 c5 -8 9 -19 9 -26 0 -7 7 -10 15 -7
10 4 15 0 15 -15 0 -12 -6 -21 -15 -21 -9 0 -12 -6 -9 -15 5 -12 -4 -15 -42
-16 -27 -1 -71 -3 -99 -4 -27 -1 -53 -1 -57 2 -10 5 18 61 45 91 16 17 23 19
29 10 6 -10 11 -9 19 5 12 21 76 18 90 -4z m1525 -324 c22 -33 56 -163 48
-177 -4 -7 -2 -8 4 -4 7 4 14 -4 17 -21 4 -15 13 -52 22 -81 16 -57 12 -91
-15 -118 -16 -17 -17 -16 -25 27 -4 24 -8 50 -9 57 -1 6 -5 12 -10 12 -4 0 -7
5 -5 11 1 6 -7 13 -18 15 -27 5 -67 -5 -61 -15 3 -5 -3 -16 -14 -26 -21 -19
-27 -45 -10 -45 20 0 10 -40 -17 -70 -18 -20 -46 -35 -80 -44 l-52 -14 10 25
c5 13 8 41 8 61 -2 34 -2 35 -6 7 -4 -26 -47 -85 -62 -85 -10 0 -3 111 8 124
6 7 8 16 4 19 -3 4 -1 7 7 7 10 0 10 3 1 14 -18 22 4 29 25 9 19 -19 19 -21
-2 31 -3 8 3 15 15 19 11 3 20 2 19 -2 -5 -41 30 -41 76 0 39 34 38 52 -5 75
-16 8 -29 21 -29 29 0 45 95 185 126 185 7 0 21 -11 30 -25z m-111 -511 c14
-6 40 -51 35 -63 -1 -2 3 -7 10 -11 6 -4 12 -15 12 -26 3 -43 -12 -70 -52 -93
l-42 -23 -28 27 c-31 29 -45 22 -34 -20 3 -14 2 -25 -2 -25 -22 0 -90 23 -96
33 -9 16 3 39 18 33 10 -4 12 4 9 34 -5 50 19 81 80 106 25 11 45 22 45 27 0
9 23 9 45 1z m-2051 -2036 c4 4 12 -2 18 -13 11 -19 11 -19 19 0 14 38 28 -25
18 -79 -5 -27 -7 -51 -4 -55 7 -12 -127 9 -157 25 -25 13 -28 20 -28 60 0 38
2 44 14 35 10 -8 16 -8 25 3 13 16 51 10 51 -8 0 -6 5 -3 11 7 5 9 7 23 3 30
-6 9 -5 9 8 0 8 -7 18 -10 22 -5z m-764 -2128 c18 0 80 -62 80 -80 0 -18 -35
-27 -77 -18 -38 8 -45 14 -69 63 -14 30 -33 55 -40 55 -19 0 -18 11 4 38 l17
22 33 -40 c19 -22 42 -40 52 -40z m625 62 c36 -12 54 -25 65 -47 8 -16 18 -32
21 -35 21 -16 8 -110 -21 -158 -12 -19 -28 -32 -40 -32 -12 0 -33 -13 -48 -30
-15 -16 -42 -33 -60 -36 -18 -4 -32 -11 -32 -16 0 -5 -4 -7 -9 -3 -6 3 -14 -2
-19 -12 -9 -15 -15 -15 -68 -4 -66 15 -96 32 -102 58 -13 57 -12 89 2 159 19
92 45 126 112 144 25 7 47 17 50 21 9 15 96 9 149 -9z m-387 -450 c9 -10 22
-27 28 -37 13 -24 36 -32 28 -11 -10 25 7 19 43 -16 19 -18 33 -42 33 -55 0
-13 4 -23 8 -23 5 0 15 -12 23 -27 7 -16 15 -31 17 -35 2 -4 -7 -12 -20 -19
-24 -13 -93 -31 -84 -22 9 9 -26 37 -58 48 -21 7 -31 17 -31 30 -1 11 -4 25
-8 32 -11 17 11 27 31 13 9 -7 2 1 -15 17 -25 22 -30 32 -21 41 9 9 7 16 -6
31 -18 20 -16 51 4 51 5 0 18 -8 28 -18z m250 -99 c52 -38 102 -85 102 -97 0
-5 7 -18 16 -28 15 -16 15 -18 1 -24 -9 -3 -41 0 -71 6 -58 12 -86 36 -86 73
0 11 -13 32 -30 47 -16 15 -30 33 -30 39 0 21 61 11 98 -16z m868 -142 c32
-17 39 -18 58 -6 27 18 128 23 134 7 6 -18 61 -44 79 -37 19 7 53 -3 53 -16 0
-5 -13 -9 -29 -9 -16 0 -42 -5 -58 -11 -25 -9 -30 -7 -49 16 -16 20 -33 29
-67 32 -43 5 -46 4 -52 -20 -4 -14 -4 -31 0 -36 22 -37 -88 33 -117 74 -22 30
-1 32 48 6z"/>
<path d="M4917 6268 c40 -28 42 -42 6 -33 -16 3 -39 8 -53 11 -22 4 -22 3 5
-10 17 -9 38 -15 48 -16 10 0 16 -4 12 -9 -7 -12 29 -33 39 -24 3 3 6 1 6 -5
0 -7 -3 -12 -7 -12 -20 1 -94 27 -94 33 2 19 0 21 -8 8 -8 -12 -13 -12 -35 2
-14 9 -28 17 -32 17 -12 0 44 -48 63 -54 10 -4 29 -15 43 -27 25 -20 25 -20
-15 1 -50 25 -82 26 -35 0 47 -25 34 -25 -25 1 -47 21 -95 59 -74 59 8 0 8 5
-1 15 -7 8 -18 15 -25 15 -11 0 -11 -6 1 -28 7 -16 11 -39 8 -53 -8 -35 -4
-112 6 -125 6 -6 7 -14 3 -18 -4 -3 -8 -24 -9 -45 -2 -38 -9 -66 -41 -159 -8
-23 -12 -49 -9 -58 3 -8 -1 -17 -9 -20 -8 -4 -15 -16 -15 -28 0 -11 -7 -30
-15 -40 -8 -10 -11 -24 -8 -30 4 -6 6 -23 5 -39 -2 -17 2 -26 8 -22 5 3 10 1
10 -4 0 -6 -4 -11 -8 -11 -10 0 9 -84 21 -96 4 -4 7 -24 7 -45 0 -21 5 -41 11
-44 6 -4 8 -13 5 -21 -3 -7 -1 -16 4 -19 22 -13 29 -192 15 -380 -5 -55 -7
-115 -6 -134 0 -18 -4 -52 -10 -75 -6 -22 -11 -53 -11 -69 0 -15 -3 -25 -8
-22 -4 3 -6 -4 -3 -15 3 -11 -5 -62 -17 -113 -13 -50 -23 -99 -23 -107 0 -8
-6 -23 -15 -32 -10 -12 -12 -25 -6 -45 l8 -28 4 33 c2 17 7 32 13 32 5 0 12
18 15 40 4 22 10 40 13 40 9 0 34 70 28 77 -3 2 1 23 9 45 8 22 16 70 19 107
3 36 8 89 12 116 4 28 7 80 7 116 0 56 3 66 16 61 12 -5 13 -3 3 9 -13 17 -16
53 -9 147 3 36 1 62 -4 62 -6 0 -10 15 -10 33 0 17 -7 52 -16 77 -18 51 -41
196 -36 223 3 12 9 16 23 12 11 -4 19 -2 19 5 0 6 -4 9 -9 6 -5 -3 -12 1 -15
10 -13 34 -5 38 20 9 32 -37 77 -43 92 -11 9 17 11 18 11 4 1 -23 26 -13 28
12 1 11 -7 22 -19 26 -16 5 -19 12 -14 35 5 24 2 29 -14 29 -12 0 -17 5 -14
14 3 8 1 17 -5 20 -6 4 -7 14 -4 22 5 14 3 14 -15 3 -12 -7 -25 -9 -29 -5 -4
5 -2 11 5 13 6 3 12 9 12 14 0 4 -6 6 -14 3 -11 -4 -14 1 -12 22 4 32 32 56
44 37 10 -16 78 -19 120 -5 19 6 32 7 32 1 0 -5 9 -9 20 -9 18 0 19 -3 10 -20
-9 -16 -8 -22 5 -26 10 -4 14 -13 10 -23 -5 -13 -2 -12 12 3 13 13 15 20 6 23
-25 9 -12 23 20 22 17 0 26 -3 20 -6 -29 -11 14 -29 70 -29 41 1 53 4 44 11
-11 8 -10 14 6 30 16 16 19 16 14 3 -4 -10 1 -18 14 -21 10 -3 19 -10 19 -16
0 -6 -8 -8 -17 -4 -15 5 -16 3 -6 -7 9 -10 18 -11 35 -2 13 6 18 11 11 11 -7
1 -10 8 -6 18 5 12 2 15 -10 10 -9 -3 -17 -2 -17 4 0 5 -5 16 -12 23 -10 10
-15 9 -29 -7 -16 -20 -16 -20 -21 12 -3 20 0 38 9 46 15 16 18 29 3 20 -15
-10 1 28 18 43 11 8 12 12 3 12 -7 0 -19 -7 -27 -15 -9 -8 -21 -15 -27 -14 -9
0 -8 2 1 6 6 2 12 9 12 14 0 6 -8 5 -20 -1 -15 -8 -20 -8 -20 1 0 7 -7 21 -17
31 -16 18 -10 23 22 19 6 -1 0 6 -11 16 -12 10 -25 28 -28 40 -6 19 -4 21 20
14 28 -7 46 -31 24 -31 -11 0 -6 -7 27 -45 10 -11 10 -14 0 -18 -7 -3 -5 -6 5
-6 27 -1 29 13 8 55 -24 46 -24 42 -2 47 13 4 12 5 -5 6 -12 0 -24 5 -27 10
-3 4 -18 6 -33 4 l-28 -5 23 17 c18 13 26 14 37 5 11 -9 18 -9 30 3 11 11 12
18 4 23 -6 3 -15 0 -20 -7 -4 -7 -11 -10 -15 -6 -4 4 -2 13 4 19 18 18 14 30
-5 19 -14 -7 -21 -5 -30 12 -7 12 -12 16 -13 10 0 -21 -16 -15 -28 11 -8 17
-7 27 1 35 9 10 8 16 -7 26 -10 8 -15 19 -11 25 6 9 2 9 -14 1 -23 -13 -41 -7
-41 12 0 7 4 6 10 -3 5 -8 12 -11 17 -7 13 14 -20 27 -35 14 -11 -9 -17 -7
-27 6 -7 9 -18 17 -26 17 -8 0 1 -10 18 -22z"/>
<path d="M3411 5201 c-1 -10 -10 -12 -36 -7 -28 6 -35 4 -35 -9 0 -8 -8 -15
-17 -15 -13 0 -14 -3 -6 -8 7 -4 14 -17 16 -29 4 -26 26 -55 37 -48 5 3 6 -3
3 -14 -3 -10 0 -22 6 -25 6 -4 11 0 11 8 0 10 6 13 17 9 35 -13 55 -44 56 -88
2 -33 5 -41 14 -33 7 6 13 21 13 35 0 14 4 21 10 18 6 -4 8 -11 5 -16 -3 -5 2
-6 12 -2 15 5 16 3 6 -8 -7 -7 -13 -17 -13 -23 0 -5 6 -2 13 9 8 10 13 34 11
54 -2 24 0 31 7 21 5 -8 9 -10 9 -5 0 15 -30 55 -41 55 -6 0 -7 -4 -4 -10 3
-5 1 -10 -6 -10 -7 0 -9 8 -6 21 3 12 3 18 0 15 -9 -8 -35 23 -28 34 3 5 0 7
-8 4 -9 -3 -17 4 -22 18 -17 50 -23 62 -24 49z"/>
<path d="M7496 7793 c-21 -721 -31 -959 -86 -2003 -32 -607 -32 -583 -6 -588
10 -2 22 0 27 5 6 6 14 84 19 174 22 375 69 1243 74 1364 12 260 25 635 31
840 3 116 8 256 11 313 l6 102 -35 0 -35 0 -6 -207z"/>
<path d="M20 7292 c0 -118 14 -470 26 -659 l6 -103 28 0 c15 0 30 6 33 13 2 6
1 77 -4 157 -4 80 -11 251 -15 380 -8 294 -11 311 -47 321 l-27 7 0 -116z"/>
<path d="M6582 6223 c-1 -7 -13 -13 -26 -13 -33 0 -89 -48 -80 -69 3 -9 7 -27
8 -41 1 -23 -2 -25 -34 -22 -47 5 -66 23 -51 51 10 18 8 21 -15 27 -14 4 -42
2 -62 -4 -21 -6 -53 -14 -73 -17 -51 -8 -86 -42 -94 -90 -3 -22 -8 -50 -11
-62 -3 -17 2 -23 26 -28 19 -4 36 -2 45 5 8 7 21 10 29 7 8 -3 20 1 26 8 7 8
15 13 19 11 6 -4 90 9 123 20 14 4 16 -2 13 -35 -4 -48 -11 -61 -34 -61 -10 0
-24 -6 -30 -14 -9 -10 1 -9 42 4 29 10 72 21 96 25 28 5 39 10 31 15 -8 5 1 8
23 7 20 0 38 1 41 4 2 2 1 67 -3 144 -5 77 -9 134 -9 128z"/>
<path d="M7370 5098 c3 -36 1 -48 -9 -48 -5 0 -11 10 -13 23 -5 34 -23 22 -26
-19 -2 -26 2 -40 15 -49 17 -12 18 -32 17 -257 -1 -134 -7 -351 -13 -483 -6
-132 -13 -292 -16 -355 -3 -63 -9 -198 -15 -300 -20 -390 -23 -530 -12 -530
13 0 18 38 32 270 6 102 13 214 16 250 4 65 29 479 40 665 6 108 31 468 43
630 5 55 11 107 15 116 5 12 -1 20 -23 29 -36 14 -39 30 -11 48 29 18 24 32
-11 32 -25 0 -30 -4 -29 -22z"/>
<path d="M4510 2341 c0 -5 8 -11 19 -14 22 -5 23 -43 1 -57 -13 -9 -13 -10 1
-10 8 0 25 -11 37 -25 12 -14 26 -25 32 -25 5 0 10 -11 10 -24 0 -14 4 -36 10
-50 7 -19 6 -29 -6 -41 -9 -8 -12 -15 -8 -15 4 0 -11 -14 -34 -32 -23 -18 -42
-38 -42 -45 0 -7 -9 -13 -19 -13 -11 0 -23 -4 -26 -10 -8 -14 0 -13 62 7 43
14 53 21 53 39 0 12 14 37 32 54 24 24 38 31 60 28 18 -3 28 0 28 8 0 7 9 16
20 19 11 3 20 11 20 16 0 10 -31 12 -55 3 -13 -6 -14 -9 -3 -16 9 -6 5 -8 -12
-6 -22 3 -25 8 -25 44 0 23 -6 48 -12 56 -14 17 -8 28 16 28 10 0 17 10 18 26
1 25 -1 26 -37 20 -33 -5 -41 -2 -58 19 -14 17 -30 25 -51 25 -17 0 -31 -4
-31 -9z"/>
<path d="M3987 2263 c-2 -5 -5 -25 -6 -45 -1 -32 2 -38 18 -38 14 0 19 -5 15
-15 -5 -11 0 -14 16 -13 13 2 25 -3 27 -9 3 -8 -4 -13 -16 -13 -20 0 -21 -1
-7 -29 9 -16 22 -31 31 -34 8 -4 15 -13 15 -22 0 -11 6 -14 24 -9 18 4 40 -6
95 -45 39 -28 71 -47 71 -42 0 5 17 12 38 16 20 3 46 13 56 20 16 12 17 17 6
30 -7 8 -21 15 -32 15 -10 0 -33 7 -49 16 -29 15 -31 14 -36 -5 -4 -14 -13
-21 -31 -21 -20 0 -23 3 -14 12 9 9 8 16 -4 29 -10 11 -12 19 -5 24 23 14 9
36 -36 57 -27 13 -56 21 -65 20 -21 -4 -25 24 -5 31 6 3 -3 10 -21 17 -21 8
-31 17 -28 26 8 21 -47 46 -57 27z"/>
<path d="M3020 1523 c0 -5 7 -18 15 -30 11 -16 12 -24 4 -29 -9 -5 -8 -10 3
-18 20 -15 38 -50 38 -75 0 -12 4 -21 9 -21 5 0 16 -6 23 -12 8 -7 23 -18 33
-25 20 -11 21 -16 11 -43 -5 -11 3 -19 24 -27 16 -6 30 -18 30 -27 0 -20 14
-21 29 -2 10 11 9 21 -4 43 -8 15 -32 59 -53 96 -21 38 -45 73 -55 78 -9 6
-17 16 -17 24 0 8 -15 25 -32 38 -45 33 -58 40 -58 30z"/>
<path d="M3989 1444 c76 -20 113 -40 151 -79 31 -32 32 -36 28 -98 -4 -69 -33
-122 -82 -149 -13 -7 -37 -21 -54 -30 -28 -17 -86 -31 -122 -31 -8 0 -48 5
-89 12 -40 6 -76 9 -79 6 -3 -3 2 -5 11 -5 9 0 26 -10 37 -22 18 -19 36 -24
118 -30 53 -4 113 -10 133 -13 38 -7 40 -7 94 61 17 20 40 47 52 59 13 12 26
37 29 56 4 19 13 44 20 56 28 45 -7 139 -64 171 -49 27 -144 52 -197 51 l-40
0 54 -15z"/>
</g>
</svg>
