<?xml version="1.0" standalone="no"?>
<!DOCTYPE svg PUBLIC "-//W3C//DTD SVG 20010904//EN"
 "http://www.w3.org/TR/2001/REC-SVG-20010904/DTD/svg10.dtd">
<svg version="1.0" xmlns="http://www.w3.org/2000/svg"
 width="800.000000pt" height="800.000000pt" viewBox="0 0 800.000000 800.000000"
 preserveAspectRatio="xMidYMid meet">
<metadata>
Created by potrace 1.16, written by Peter Selinger 2001-2019
</metadata>
<g transform="translate(0.000000,800.000000) scale(0.100000,-0.100000)"
fill="#000000" stroke="none">
<path d="M0 7945 l0 -55 4000 0 4000 0 0 55 0 55 -4000 0 -4000 0 0 -55z"/>
<path d="M650 6789 c-19 -5 -66 -14 -104 -19 -39 -6 -74 -14 -80 -20 -5 -5
-18 -10 -29 -10 -27 0 -102 -37 -133 -65 -15 -14 -32 -25 -39 -25 -7 0 -21
-11 -31 -25 -10 -14 -26 -25 -35 -25 -9 0 -21 -11 -27 -25 -9 -19 -19 -25 -42
-25 -27 0 -30 -3 -24 -24 4 -18 1 -25 -15 -29 -17 -4 -21 0 -21 19 0 20 -5 24
-32 24 -20 0 -28 3 -21 8 18 11 28 68 14 76 -6 4 -9 12 -6 17 4 5 -1 9 -9 9
-14 0 -16 -320 -16 -3325 l0 -3325 4000 0 4000 0 0 3260 c0 3070 -1 3261 -17
3280 -12 13 -31 20 -58 21 -37 1 -38 2 -10 8 26 6 28 7 10 14 -14 6 -16 10 -7
16 9 5 -3 13 -35 21 -26 7 -56 21 -66 32 -23 23 -34 23 -42 -2 -3 -11 -10 -20
-15 -20 -4 0 -10 -9 -13 -19 -5 -21 33 -61 59 -61 8 0 30 -16 48 -36 40 -43
39 -81 -3 -90 -42 -9 -47 -12 -23 -13 32 -1 23 -25 -11 -29 -15 -2 -27 -9 -27
-15 0 -9 -2 -9 -8 -1 -11 18 -55 38 -75 35 -19 -3 -47 15 -47 30 0 5 7 9 15 9
25 0 17 17 -12 25 -39 11 -84 6 -111 -11 -19 -13 -22 -20 -16 -49 8 -42 -3
-44 -55 -13 -49 29 -48 28 -30 41 9 7 17 16 18 21 3 12 -19 26 -42 26 -22 0
-34 -29 -16 -40 10 -7 7 -11 -14 -19 -17 -7 -27 -18 -27 -31 0 -12 -5 -18 -10
-15 -6 4 -8 11 -5 16 4 5 1 9 -6 9 -7 0 -20 7 -30 16 -9 8 -31 16 -48 16 -17
1 -31 5 -31 10 0 4 -16 8 -35 8 -24 0 -35 5 -35 15 0 8 -9 15 -20 15 -11 0
-28 9 -37 19 -16 20 -17 19 -46 -5 -15 -13 -35 -24 -42 -24 -7 0 -23 -12 -35
-27 -19 -24 -20 -28 -6 -31 22 -5 20 -22 -3 -22 -14 0 -18 -5 -14 -20 3 -11
10 -20 17 -21 6 0 1 -4 -12 -9 -18 -8 -21 -15 -16 -35 5 -22 3 -25 -22 -26
-16 -1 -22 -3 -14 -5 16 -5 47 -45 33 -43 -19 3 -23 -2 -14 -20 13 -23 -7 -71
-29 -71 -13 -1 -12 -3 2 -13 11 -9 14 -22 11 -40 -5 -23 -11 -27 -55 -33 -38
-5 -52 -12 -60 -29 -13 -29 -58 -41 -50 -13 3 15 -2 18 -27 18 -26 0 -31 4
-31 24 0 13 5 26 11 28 6 2 11 25 11 52 1 36 -3 51 -16 58 -18 10 -14 46 7 59
5 4 7 12 3 18 -9 14 -74 31 -93 24 -14 -5 -15 1 -8 43 4 27 9 52 12 57 2 4 23
7 46 8 33 0 38 2 22 9 -38 17 -83 12 -90 -10 -7 -22 -24 -27 -30 -7 -2 6 -6
29 -10 50 -4 23 -11 37 -18 34 -7 -2 -11 -11 -9 -21 4 -24 -17 -19 -28 7 -5
12 -20 34 -32 49 l-21 27 27 28 c27 27 19 47 -9 23 -14 -12 -39 -5 -31 9 3 4
-9 8 -25 8 -17 0 -34 4 -37 10 -4 6 -22 14 -40 18 -22 4 -36 15 -42 31 -6 14
-18 24 -30 24 -11 0 -20 -2 -20 -5 0 -6 27 -37 62 -72 41 -39 35 -46 -32 -38
-38 4 -60 3 -60 -3 0 -12 65 -24 95 -18 30 5 55 -12 55 -37 0 -13 5 -28 11
-34 8 -8 4 -16 -14 -28 -14 -9 -27 -25 -30 -36 -4 -16 -1 -19 16 -17 14 2 23
-3 25 -15 2 -10 14 -29 28 -42 26 -26 31 -51 12 -58 -10 -4 -10 -7 0 -18 19
-21 14 -32 -14 -26 -18 3 -24 1 -20 -9 7 -18 -14 -17 -38 1 -10 8 -23 12 -29
8 -5 -3 -12 -1 -16 5 -10 16 -101 18 -110 3 -7 -10 -13 -11 -31 -1 -17 9 -19
14 -10 20 15 9 5 30 -15 30 -8 0 -12 6 -9 14 4 11 -3 13 -38 9 -78 -10 -116
-41 -87 -70 16 -16 1 -71 -22 -86 -11 -7 -19 -23 -19 -39 0 -30 3 -29 -115
-47 -38 -5 -80 -13 -92 -16 -19 -6 -23 -2 -33 36 -10 36 -9 44 4 51 11 6 16
23 16 51 0 30 5 45 19 54 10 6 22 29 25 50 4 21 14 48 22 61 9 13 14 37 12 55
-2 20 3 37 12 44 13 11 13 12 -2 13 -28 0 -108 -59 -108 -81 0 -10 -9 -24 -20
-31 -11 -7 -20 -18 -20 -24 0 -7 -19 -29 -42 -50 -24 -21 -45 -47 -48 -58 -3
-12 -21 -29 -40 -38 -27 -14 -35 -25 -36 -45 -1 -16 -4 -35 -8 -44 -4 -9 -6
-20 -5 -25 4 -22 -2 -33 -22 -39 -15 -5 -20 -14 -17 -35 2 -21 -5 -36 -25 -54
-16 -14 -33 -26 -40 -27 -7 0 -3 -5 8 -10 32 -15 -133 0 -183 17 -23 8 -67 14
-97 14 -52 0 -55 1 -55 26 0 21 -4 24 -20 19 -16 -5 -20 -2 -20 17 0 44 -11
66 -29 61 -27 -7 -48 50 -31 83 7 13 20 24 29 24 11 0 10 4 -6 15 -14 10 -32
13 -48 9 -15 -4 -25 -2 -25 5 0 6 7 11 15 11 15 0 19 11 15 40 -3 19 -3 20
-30 25 -33 6 -37 15 -7 15 17 0 27 5 27 15 0 8 -5 15 -11 15 -6 0 -22 9 -36
20 -53 42 -86 4 -41 -46 22 -25 19 -28 -39 -43 -26 -7 -43 -18 -43 -26 0 -17
-27 -20 -32 -4 -2 7 -12 7 -30 0 -20 -8 -34 -7 -54 4 -26 13 -28 12 -41 -12
-11 -22 -11 -27 2 -37 19 -14 9 -53 -16 -61 -10 -4 -19 -11 -19 -16 0 -14 -26
-11 -40 6 -12 14 -15 13 -35 -5 -12 -11 -31 -20 -43 -20 -26 0 -28 -17 -5 -42
9 -10 11 -18 5 -18 -18 0 -62 22 -62 32 0 4 -8 8 -18 8 -37 0 -205 73 -234
102 -28 27 -22 30 32 23 32 -4 50 -3 50 3 0 6 -31 14 -70 18 -47 4 -70 11 -70
19 0 8 5 15 10 17 7 2 7 14 0 36 -7 26 -6 39 6 56 13 21 12 24 -16 46 -40 30
-38 50 8 80 33 22 48 25 129 25 50 0 95 3 99 8 4 4 -18 7 -49 7 -58 0 -67 6
-44 29 10 11 -2 13 -68 8 -44 -2 -73 -3 -65 0 15 4 22 7 84 32 51 21 19 24
-76 8 -196 -33 -248 -39 -268 -34 -12 3 -38 -1 -58 -10 -37 -15 -82 -24 -217
-43 -38 -5 -101 -17 -140 -26 -107 -25 -332 -17 -342 12 -2 5 9 15 24 21 23 8
16 9 -37 5 -36 -2 -70 -9 -76 -13 -39 -31 -216 -67 -207 -42 3 9 -3 13 -21 13
-30 0 -33 -8 -10 -25 15 -10 13 -13 -17 -19 l-34 -8 32 -15 c24 -12 32 -22 31
-40 -1 -13 -6 -23 -10 -23 -19 0 -48 -37 -48 -62 0 -15 -5 -30 -10 -33 -5 -3
-10 -22 -10 -42 0 -20 -6 -44 -14 -52 -19 -22 -30 -61 -17 -61 23 0 11 -58
-19 -90 l-29 -31 -31 17 c-29 18 -41 44 -20 44 6 0 10 7 10 15 0 8 5 15 10 15
6 0 10 7 10 16 0 11 -6 14 -22 8 -63 -20 -149 6 -98 30 32 15 23 32 -25 50
-25 10 -43 21 -40 26 3 5 -4 11 -15 15 -23 7 -25 16 -8 33 8 8 9 12 1 12 -8 0
-8 8 0 30 6 17 15 30 19 30 4 0 8 5 8 11 0 7 -10 9 -27 4 -22 -5 -24 -4 -15 8
9 10 9 16 0 25 -9 9 -9 15 -1 23 9 9 4 20 -17 42 -21 23 -28 39 -26 60 2 16
-3 41 -10 56 -8 14 -14 35 -15 46 0 11 -10 40 -22 65 -63 126 -89 144 -129 90
-12 -16 -28 -30 -35 -30 -8 0 -16 -7 -20 -15 -7 -21 25 -55 45 -48 13 5 14 1
8 -28 -8 -44 -12 -46 -80 -64 -57 -15 -85 -13 -57 5 10 6 3 11 -24 19 -31 8
-42 8 -55 -4 -9 -8 -39 -15 -68 -16 -29 -1 -55 -6 -58 -11 -3 -4 -13 -8 -22
-8 -9 0 1 11 24 25 23 14 44 31 47 39 3 8 14 12 25 9 12 -3 29 6 48 24 16 16
38 34 49 40 29 16 13 26 -19 12 -19 -9 -32 -9 -50 -1 -20 9 -30 6 -60 -14 -20
-14 -42 -24 -49 -23 -6 1 -25 -3 -40 -9 -16 -7 -34 -12 -42 -12 -8 0 -16 -4
-20 -9 -3 -5 -28 -17 -55 -26 -28 -9 -50 -21 -50 -26 0 -6 -9 -7 -20 -4 -12 4
-31 0 -43 -8 -12 -7 -35 -17 -52 -21 -67 -16 -145 -50 -145 -62 0 -8 -7 -14
-15 -14 -8 0 -15 5 -15 10 0 6 -10 10 -22 10 -16 0 -19 -3 -10 -8 7 -5 -64 -9
-157 -9 -94 0 -168 4 -165 9 6 9 -47 11 -70 2 -17 -7 -22 -34 -6 -34 6 0 10
-3 10 -7 0 -8 -131 1 -190 13 -19 4 -43 13 -54 20 -20 14 -41 9 -69 -14 -20
-18 -7 -32 30 -32 38 0 40 -59 2 -60 -12 0 -41 39 -35 48 3 6 -1 13 -10 16
-23 9 -27 8 -21 -6 3 -10 -14 -12 -72 -10 -42 2 -80 8 -85 13 -13 12 55 39 82
33 11 -3 29 -1 39 5 10 6 12 11 6 11 -22 0 -14 30 7 30 11 0 20 7 20 15 0 19
56 21 63 3 4 -10 6 -10 6 -1 1 17 -20 28 -54 28 -26 0 -30 3 -28 25 1 14 0 18
-3 8 -9 -31 -22 -19 -28 27 -9 55 -2 68 32 62 14 -3 33 -2 41 1 11 5 7 8 -13
12 -16 3 -31 10 -32 15 -4 12 73 50 144 70 28 9 52 20 52 25 0 12 -12 11 -60
-1z m3305 -344 c1 -6 6 -20 13 -32 8 -14 9 -24 2 -28 -5 -3 -10 -19 -10 -36 0
-33 -13 -37 -56 -14 -16 8 -40 15 -54 15 -40 0 -95 24 -98 41 -1 9 4 22 13 29
17 14 46 6 43 -12 -2 -8 9 -14 29 -16 23 -2 34 2 42 17 17 32 42 52 60 49 9
-2 16 -8 16 -13z m-395 -20 c7 -8 23 -15 35 -15 41 0 40 -66 -1 -76 -13 -3
-21 -10 -18 -15 3 -5 -1 -9 -8 -9 -8 0 -6 -5 5 -11 9 -5 17 -16 17 -24 0 -8 9
-20 21 -28 15 -11 17 -17 8 -22 -7 -5 -18 0 -26 10 -9 14 -16 16 -24 8 -8 -8
-6 -13 8 -17 39 -13 46 -118 8 -139 -10 -5 -14 -16 -10 -27 4 -13 0 -20 -15
-25 -11 -3 -20 -12 -20 -18 0 -7 -4 -6 -10 3 -7 11 -10 0 -10 -37 0 -31 -4
-53 -11 -53 -6 0 -17 -7 -25 -15 -16 -16 -51 -19 -79 -9 -12 5 -13 9 -5 14 6
4 -7 10 -31 14 -28 4 -50 16 -65 33 -12 14 -28 23 -36 21 -8 -3 -22 0 -33 8
-10 8 -14 14 -8 14 6 0 13 7 17 15 4 10 -6 17 -33 25 -21 5 -46 20 -57 31 -10
12 -35 28 -54 36 -95 40 -130 59 -126 70 3 6 -1 14 -9 17 -10 3 -11 14 -5 43
5 20 7 39 5 42 -3 2 11 21 30 43 19 21 35 45 35 53 0 24 35 35 109 35 57 0 72
-3 79 -17 5 -10 7 -24 5 -30 -3 -7 3 -13 13 -13 9 0 22 -6 28 -14 15 -19 48
-27 65 -17 19 12 3 33 -20 26 -11 -4 -19 -2 -19 4 0 6 6 11 14 11 7 0 19 7 26
15 17 20 27 19 47 -5 17 -20 53 -28 53 -11 0 15 53 62 65 57 7 -2 18 0 26 5
19 12 25 11 39 -6z m309 -305 c37 -18 154 -50 163 -44 6 4 13 1 17 -5 4 -6 36
-16 70 -22 42 -8 64 -17 68 -28 2 -9 9 -25 15 -36 9 -15 7 -21 -6 -30 -10 -5
-27 -18 -38 -27 -18 -15 -18 -18 -5 -18 10 0 17 -4 17 -10 0 -5 -12 -7 -27 -5
-22 4 -32 0 -47 -21 -15 -22 -16 -28 -5 -35 10 -6 8 -9 -8 -9 -13 0 -23 -4
-23 -10 0 -5 6 -10 14 -10 7 0 19 -7 26 -15 11 -13 6 -15 -33 -15 -24 0 -62 7
-83 16 -25 11 -53 14 -80 10 -31 -4 -45 -1 -55 10 -16 20 -3 30 49 38 34 5 42
3 42 -9 0 -21 17 -19 30 5 6 11 17 20 25 20 8 0 15 5 15 11 0 8 5 8 15 -1 8
-7 23 -9 32 -5 16 6 15 8 -6 16 l-24 10 21 19 c12 11 27 20 34 20 10 0 9 3 -1
9 -10 7 -24 3 -42 -9 -26 -20 -65 -29 -149 -36 -54 -5 -113 25 -138 71 -10 17
-20 32 -23 35 -11 10 -39 73 -39 90 0 34 22 42 94 35 38 -4 76 -10 85 -15z
m2391 -69 c0 -23 17 -31 53 -24 73 14 67 -32 -14 -109 -28 -27 -52 -54 -54
-61 -11 -45 -19 -57 -37 -57 -16 0 -18 3 -9 14 15 18 -3 32 -54 40 -74 11
-130 24 -179 39 -46 15 -48 15 -53 -4 -5 -20 -23 -27 -23 -9 0 13 -37 13 -44
1 -4 -5 -1 -11 5 -13 20 -7 -20 -58 -45 -58 -12 0 -34 -12 -50 -26 l-28 -27
48 -31 c42 -27 46 -31 25 -34 -16 -3 -21 -8 -16 -20 19 -51 17 -72 -13 -113
-27 -37 -29 -43 -16 -56 10 -11 14 -31 12 -64 -2 -27 -6 -49 -9 -49 -3 0 -18
-11 -33 -25 -15 -14 -32 -23 -37 -19 -5 3 -15 1 -22 -4 -7 -6 -37 -14 -66 -18
-43 -6 -52 -4 -46 6 5 7 4 11 -1 8 -5 -2 -27 -13 -49 -23 -38 -17 -39 -19 -17
-28 15 -7 37 -7 69 0 50 12 93 3 93 -19 0 -7 -18 -30 -40 -51 -21 -22 -38 -44
-37 -50 1 -6 -12 -18 -28 -25 -17 -8 -37 -27 -44 -43 -14 -32 -32 -37 -51 -14
-10 12 -10 21 -2 40 13 29 -5 48 -20 21 -5 -9 -20 -16 -33 -16 -15 0 -24 -5
-22 -12 1 -8 -11 -14 -30 -16 -17 -2 -37 -9 -43 -17 -10 -12 -5 -14 27 -14 81
-1 98 -5 98 -26 0 -22 54 -56 118 -75 42 -12 107 -48 107 -59 0 -4 18 -27 40
-51 22 -24 40 -47 40 -50 0 -3 21 -18 45 -35 37 -24 48 -40 61 -81 17 -50 17
-51 -11 -92 -21 -32 -36 -43 -64 -48 -22 -4 -50 -20 -71 -41 -31 -31 -39 -34
-75 -29 -27 4 -62 -2 -108 -17 -70 -24 -78 -37 -20 -37 36 0 44 -15 13 -25
-11 -3 -20 -12 -20 -20 0 -15 -27 -28 -42 -19 -5 3 -7 13 -3 21 4 13 -2 15
-41 10 -60 -6 -98 -35 -102 -76 -3 -24 -19 -47 -67 -94 -35 -34 -80 -73 -100
-87 -20 -14 -48 -34 -63 -46 -35 -27 -162 -96 -162 -88 0 4 -6 1 -13 -5 -8 -6
-54 -13 -103 -15 -49 -3 -129 -15 -179 -27 -74 -19 -118 -23 -245 -23 -120 0
-158 -4 -170 -15 -11 -10 -33 -12 -94 -8 -43 3 -89 1 -102 -3 -12 -5 -57 -11
-98 -13 -42 -2 -81 -9 -88 -15 -7 -5 -30 -13 -51 -17 -20 -4 -40 -11 -43 -16
-3 -5 -14 -9 -25 -9 -10 0 -19 -5 -19 -11 0 -11 88 -2 105 11 20 16 89 23 249
25 88 1 178 6 199 10 21 4 66 4 100 1 60 -7 63 -8 73 -42 9 -28 8 -36 -4 -43
-21 -12 -8 -39 23 -51 25 -9 35 -30 14 -30 -5 0 -34 -10 -62 -23 -111 -49
-111 -47 8 -45 119 2 255 -10 255 -22 0 -15 78 -22 100 -10 19 10 27 9 49 -7
14 -11 49 -28 76 -38 28 -10 59 -25 70 -32 17 -11 13 -13 -37 -13 -31 0 -69 5
-84 10 -34 13 -92 -6 -75 -23 6 -6 11 -23 11 -37 0 -20 -7 -29 -33 -38 -41
-15 -94 -16 -102 -2 -3 6 0 10 7 10 9 0 9 3 -2 10 -23 15 -41 12 -38 -6 3 -13
-18 -15 -167 -16 -93 0 -242 5 -329 11 -131 9 -175 9 -250 -3 -50 -8 -128 -20
-173 -26 -99 -15 -243 -7 -258 13 -14 19 -50 37 -74 37 -11 0 -32 11 -46 24
-15 14 -32 27 -38 30 -8 3 -7 8 3 15 11 8 12 13 3 22 -7 7 -10 29 -6 59 4 33
1 58 -10 79 -13 26 -13 31 -2 31 11 0 12 6 6 23 -6 17 -15 21 -37 19 -24 -2
-26 -1 -11 8 22 14 22 63 1 85 -15 14 -15 18 0 40 16 24 16 26 -9 37 -33 15
-32 20 9 56 45 39 63 72 45 83 -10 6 -10 13 -1 33 12 28 42 36 42 11 0 -21 13
-19 67 13 27 16 85 37 131 47 45 10 82 22 82 27 0 4 -7 8 -15 8 -8 0 -15 8
-15 19 0 10 -7 35 -16 56 -15 36 -16 37 -56 31 l-40 -7 4 48 3 48 -32 0 c-39
0 -40 5 -10 32 14 13 41 22 74 25 64 6 88 -14 99 -80 6 -37 12 -46 43 -60 23
-11 36 -24 36 -37 0 -12 9 -22 25 -26 37 -10 52 -10 45 1 -3 6 -15 10 -26 10
-10 0 -19 3 -19 8 0 11 46 52 59 52 6 0 8 7 5 15 -4 8 -14 15 -24 15 -26 0
-43 26 -36 56 5 20 3 27 -13 31 -29 7 -18 20 25 27 25 5 34 11 30 22 -3 8 -1
14 4 14 6 0 10 9 10 19 0 10 8 22 17 25 15 6 15 8 3 16 -8 5 -25 7 -37 3 -27
-6 -30 5 -5 23 15 12 14 13 -14 14 -39 0 -45 6 -33 38 8 22 5 30 -21 57 -16
17 -30 36 -30 42 0 13 33 23 77 23 31 0 32 -2 27 -30 l-6 -29 53 20 c56 20
150 31 170 19 8 -6 8 -13 -1 -30 -10 -18 -9 -24 7 -36 10 -7 22 -14 26 -14 5
0 5 -10 2 -22 l-7 -23 20 20 c35 33 51 45 61 45 6 0 15 9 21 21 10 17 8 24
-10 39 -12 11 -27 21 -33 23 -20 6 4 27 32 27 16 0 40 11 57 26 33 29 100 63
126 64 10 0 30 8 46 18 23 13 27 21 21 37 -14 37 -10 45 25 45 25 0 38 -6 50
-25 9 -14 25 -25 36 -25 24 0 26 13 5 30 -23 19 -18 39 13 46 15 3 37 10 49
16 16 8 30 8 50 0 49 -18 300 -23 368 -7 56 14 125 19 98 8 -28 -11 -11 -25
25 -19 20 2 88 10 149 17 62 7 110 15 107 18 -3 3 -37 6 -75 6 -38 0 -70 5
-71 10 -1 6 23 17 53 25 31 8 62 20 70 26 8 6 29 17 47 25 17 8 32 17 32 21 0
5 6 8 14 8 7 0 19 7 26 15 11 13 8 14 -18 9 -16 -3 -32 -2 -36 4 -6 11 -54 4
-62 -9 -3 -5 -16 -9 -30 -9 -20 0 -24 5 -24 30 0 20 5 30 15 30 20 0 18 20 -4
47 -13 15 -34 23 -77 28 -57 7 -124 31 -124 44 0 11 31 51 39 51 4 0 20 -11
35 -25 15 -14 35 -25 45 -25 10 0 35 -7 54 -15 83 -35 324 -7 378 44 26 24 18
41 -11 23 -38 -23 -45 -11 -10 17 25 21 39 27 51 21 10 -6 23 -4 37 6 21 14
30 44 15 44 -5 1 -65 2 -135 4 -80 2 -132 7 -142 15 -8 6 -33 11 -57 9 -34 -2
-45 2 -56 19 -15 23 -43 21 -43 -3 0 -15 -25 -19 -34 -6 -2 4 -1 14 4 22 5 7
3 23 -3 37 -8 19 -7 26 6 36 9 6 20 24 26 38 8 22 15 26 39 23 37 -4 66 17 67
48 0 17 7 24 24 26 13 2 25 12 28 22 6 24 52 34 137 30 64 -2 68 -1 62 18 -4
11 -2 23 4 27 5 3 10 1 10 -4 0 -14 80 -14 100 -1 13 8 11 11 -8 16 -13 4 -21
13 -20 23 2 12 -5 16 -27 16 -23 1 -30 5 -30 20 0 14 16 25 65 43 103 37 231
58 510 81 52 4 98 9 103 10 4 0 7 -8 7 -18z m-3004 -1636 c-5 -19 -2 -25 10
-25 13 0 14 -3 5 -14 -18 -22 -2 -46 30 -46 33 0 37 -15 12 -42 -12 -13 -31
-18 -71 -18 -36 0 -65 -6 -86 -19 -44 -27 -138 -46 -161 -33 -17 9 -15 11 13
26 18 9 63 48 100 87 59 62 120 107 146 109 4 0 5 -11 2 -25z m-957 -619 c20
-23 80 -27 120 -7 66 33 236 5 280 -45 12 -13 28 -24 36 -24 8 0 15 -7 15 -15
0 -8 5 -15 10 -15 6 0 18 -17 27 -37 10 -21 31 -51 46 -66 23 -23 31 -43 38
-95 5 -36 6 -69 1 -74 -11 -11 -286 -31 -321 -23 -14 3 -39 1 -56 -3 -18 -5
-42 -5 -59 1 -22 8 -35 6 -56 -6 -28 -17 -146 -61 -191 -71 -30 -7 -74 -66
-84 -113 -4 -21 -1 -44 10 -67 10 -20 15 -43 11 -51 -7 -19 -56 -20 -82 0 -10
8 -28 15 -39 15 -11 0 -25 11 -32 25 -10 23 -9 25 13 25 28 0 31 8 7 25 -14
11 -15 17 -6 38 8 17 8 27 2 29 -6 2 -1 15 10 30 26 33 26 45 1 53 -25 8 -25
26 0 74 20 41 18 51 -12 51 -31 0 -20 24 22 50 42 26 70 67 70 104 1 25 18 50
42 59 11 4 15 13 11 26 -5 21 -2 22 75 35 40 7 71 33 49 41 -7 3 -26 1 -41 -5
-36 -13 -46 -13 -46 3 0 35 105 62 129 33z m-1346 -143 c110 -5 133 -19 42
-25 -38 -2 -49 -6 -46 -18 10 -42 7 -45 -48 -48 -30 -2 -60 -10 -68 -18 -9 -8
-36 -14 -66 -15 -106 -2 -167 -12 -154 -26 11 -11 -13 -43 -33 -43 -23 0 -26
10 -8 28 16 16 -3 15 -27 -2 -28 -18 -81 -25 -140 -16 l-50 7 46 2 c32 1 49 6
53 16 3 10 -1 15 -12 16 -10 0 -12 3 -4 6 6 2 12 11 12 18 0 14 57 35 92 35 9
0 21 6 25 14 14 23 45 34 133 46 47 7 88 15 92 19 11 10 40 10 161 4z m4466
-3542 c7 -5 10 -14 7 -20 -9 -15 -2832 -16 -2841 -1 -3 6 -3 15 0 20 8 13
2814 14 2834 1z"/>
<path d="M4590 6540 c-8 -5 -30 -10 -48 -10 -25 0 -35 -5 -39 -19 -3 -11 -16
-22 -29 -25 -15 -4 -24 -14 -24 -25 0 -21 19 -31 55 -31 21 0 22 -3 16 -32 -4
-18 -5 -44 -1 -58 5 -21 12 -25 50 -28 33 -3 47 1 57 14 19 25 17 30 -18 44
-21 9 -27 16 -20 23 13 13 -15 48 -33 41 -7 -3 -20 6 -29 20 -18 27 -20 26 45
40 19 4 26 11 22 21 -4 9 0 15 10 15 9 0 16 5 16 10 0 13 -11 13 -30 0z"/>
</g>
</svg>
